<?xml version="1.0" encoding="UTF-8"?>
<svg xmlns="http://www.w3.org/2000/svg" xmlns:xlink="http://www.w3.org/1999/xlink" width="47pt" height="48pt" viewBox="0 0 47 48" version="1.1">
<g id="surface8417">
<path style=" stroke:none;fill-rule:evenodd;fill:rgb(100%,100%,100%);fill-opacity:1;" d="M 40.695313 39.230469 L 44.949219 39.230469 L 44.949219 35.546875 L 40.695313 35.546875 Z M 40.695313 39.230469 "/>
<path style=" stroke:none;fill-rule:evenodd;fill:rgb(100%,100%,100%);fill-opacity:1;" d="M 33.039063 39.230469 L 37.292969 39.230469 L 37.292969 35.546875 L 33.039063 35.546875 Z M 33.039063 39.230469 "/>
<path style=" stroke:none;fill-rule:evenodd;fill:rgb(100%,100%,100%);fill-opacity:1;" d="M 2.144531 13.832031 L 5.828125 13.832031 L 5.828125 9.578125 L 2.144531 9.578125 Z M 2.144531 13.832031 "/>
<path style=" stroke:none;fill-rule:evenodd;fill:rgb(100%,100%,100%);fill-opacity:1;" d="M 2.144531 6.175781 L 5.828125 6.175781 L 5.828125 1.921875 L 2.144531 1.921875 Z M 2.144531 6.175781 "/>
<path style=" stroke:none;fill-rule:evenodd;fill:rgb(100%,100%,100%);fill-opacity:1;" d="M 2.199219 21.285156 L 5.882813 21.285156 L 5.882813 17.03125 L 2.199219 17.03125 Z M 2.199219 21.285156 "/>
<path style=" stroke:none;fill-rule:evenodd;fill:rgb(100%,100%,100%);fill-opacity:1;" d="M 2.199219 28.941406 L 5.882813 28.941406 L 5.882813 24.6875 L 2.199219 24.6875 Z M 2.199219 28.941406 "/>
<path style=" stroke:none;fill-rule:evenodd;fill:rgb(100%,100%,100%);fill-opacity:1;" d="M 2.453125 38.152344 L 6.136719 38.152344 L 6.136719 33.898438 L 2.453125 33.898438 Z M 2.453125 38.152344 "/>
<path style=" stroke:none;fill-rule:evenodd;fill:rgb(100%,100%,100%);fill-opacity:1;" d="M 2.453125 45.804688 L 6.136719 45.804688 L 6.136719 41.550781 L 2.453125 41.550781 Z M 2.453125 45.804688 "/>
<path style=" stroke:none;fill-rule:evenodd;fill:rgb(100%,100%,100%);fill-opacity:1;" d="M 40.695313 25.339844 L 44.949219 25.339844 L 44.949219 21.65625 L 40.695313 21.65625 Z M 40.695313 25.339844 "/>
<path style=" stroke:none;fill-rule:evenodd;fill:rgb(100%,100%,100%);fill-opacity:1;" d="M 33.039063 25.339844 L 37.292969 25.339844 L 37.292969 21.65625 L 33.039063 21.65625 Z M 33.039063 25.339844 "/>
<path style=" stroke:none;fill-rule:evenodd;fill:rgb(100%,100%,100%);fill-opacity:1;" d="M 10.828125 23.652344 L 15.222656 23.652344 L 15.222656 21.953125 L 10.828125 21.953125 Z M 10.828125 23.652344 "/>
<path style=" stroke:none;fill-rule:evenodd;fill:rgb(100%,100%,100%);fill-opacity:1;" d="M 10.828125 27.25 L 15.222656 27.25 L 15.222656 25.550781 L 10.828125 25.550781 Z M 10.828125 27.25 "/>
<path style=" stroke:none;fill-rule:evenodd;fill:rgb(100%,100%,100%);fill-opacity:1;" d="M 10.828125 30.851563 L 15.222656 30.851563 L 15.222656 29.152344 L 10.828125 29.152344 Z M 10.828125 30.851563 "/>
<path style=" stroke:none;fill-rule:evenodd;fill:rgb(100%,100%,100%);fill-opacity:1;" d="M 10.828125 34.449219 L 15.222656 34.449219 L 15.222656 32.75 L 10.828125 32.75 Z M 10.828125 34.449219 "/>
<path style=" stroke:none;fill-rule:evenodd;fill:rgb(100%,100%,100%);fill-opacity:1;" d="M 26.136719 34.449219 L 30.53125 34.449219 L 30.53125 32.75 L 26.136719 32.75 Z M 26.136719 34.449219 "/>
<path style=" stroke:none;fill-rule:evenodd;fill:rgb(100%,100%,100%);fill-opacity:1;" d="M 26.136719 30.851563 L 30.53125 30.851563 L 30.53125 29.152344 L 26.136719 29.152344 Z M 26.136719 30.851563 "/>
<path style=" stroke:none;fill-rule:evenodd;fill:rgb(100%,100%,100%);fill-opacity:1;" d="M 26.136719 27.25 L 30.53125 27.25 L 30.53125 25.550781 L 26.136719 25.550781 Z M 26.136719 27.25 "/>
<path style=" stroke:none;fill-rule:evenodd;fill:rgb(100%,100%,100%);fill-opacity:1;" d="M 26.136719 23.652344 L 30.53125 23.652344 L 30.53125 21.953125 L 26.136719 21.953125 Z M 26.136719 23.652344 "/>
<path style=" stroke:none;fill-rule:evenodd;fill:rgb(100%,100%,100%);fill-opacity:1;" d="M 33.097656 31.859375 L 37.351563 31.859375 L 37.351563 28.175781 L 33.097656 28.175781 Z M 33.097656 31.859375 "/>
<path style=" stroke:none;fill-rule:evenodd;fill:rgb(100%,100%,100%);fill-opacity:1;" d="M 40.75 31.859375 L 45.003906 31.859375 L 45.003906 28.175781 L 40.75 28.175781 Z M 40.75 31.859375 "/>
</g>
</svg>
