G04 #@! TF.FileFunction,Copper,L1,Top,Signal*
%FSLAX46Y46*%
G04 Gerber Fmt 4.6, Leading zero omitted, Abs format (unit mm)*
G04 Created by KiCad (PCBNEW (2015-01-29 BZR 5396)-product) date 7/20/2015 11:16:08 PM*
%MOMM*%
G01*
G04 APERTURE LIST*
%ADD10C,0.100000*%
%ADD11R,1.500000X1.250000*%
%ADD12R,2.000000X2.500000*%
%ADD13R,2.032000X2.032000*%
%ADD14O,2.032000X2.032000*%
%ADD15R,2.032000X1.727200*%
%ADD16O,2.032000X1.727200*%
%ADD17R,1.270000X0.406400*%
%ADD18C,0.685800*%
%ADD19C,0.889000*%
%ADD20C,0.304800*%
%ADD21C,0.609600*%
%ADD22C,0.254000*%
%ADD23C,0.152400*%
G04 APERTURE END LIST*
D10*
D11*
X142750000Y-99220000D03*
X145250000Y-99220000D03*
D12*
X143030000Y-101980000D03*
X147030000Y-101980000D03*
D11*
X142820000Y-104750000D03*
X145320000Y-104750000D03*
D12*
X143530000Y-107720000D03*
X147530000Y-107720000D03*
D13*
X137240000Y-99520000D03*
D14*
X139780000Y-99520000D03*
D15*
X131410000Y-107520000D03*
D16*
X131410000Y-104980000D03*
X131410000Y-102440000D03*
X131410000Y-99900000D03*
D13*
X136700000Y-112810000D03*
D14*
X139240000Y-112810000D03*
D13*
X143950000Y-111450000D03*
D14*
X146490000Y-111450000D03*
D17*
X135243000Y-103479000D03*
X135243000Y-104114000D03*
X135243000Y-104774400D03*
X135243000Y-105434800D03*
X135243000Y-106069800D03*
X135243000Y-106730200D03*
X135243000Y-107390600D03*
X135243000Y-108025600D03*
X135243000Y-108686000D03*
X135243000Y-109321000D03*
X140577000Y-109321000D03*
X140577000Y-108686000D03*
X140577000Y-108025600D03*
X140577000Y-107390600D03*
X140577000Y-106730200D03*
X140577000Y-106069800D03*
X140577000Y-105434800D03*
X140577000Y-104774400D03*
X140577000Y-104114000D03*
X140577000Y-103479000D03*
D18*
X138850000Y-108810000D03*
X136790000Y-108690000D03*
X149490000Y-107730000D03*
X147080000Y-104710000D03*
X149120000Y-101970000D03*
X147190000Y-99230000D03*
X136880000Y-109670000D03*
X138890000Y-109730000D03*
X136770000Y-108020000D03*
X138830000Y-107980000D03*
D19*
X133660000Y-103010000D03*
D20*
X136790000Y-108690000D02*
X138730000Y-108690000D01*
X138730000Y-108690000D02*
X138850000Y-108810000D01*
X138974000Y-108686000D02*
X140577000Y-108686000D01*
X138974000Y-108686000D02*
X138850000Y-108810000D01*
X135243000Y-108686000D02*
X136786000Y-108686000D01*
X136786000Y-108686000D02*
X136790000Y-108690000D01*
D21*
X147530000Y-107720000D02*
X149480000Y-107720000D01*
X149480000Y-107720000D02*
X149490000Y-107730000D01*
X145320000Y-104750000D02*
X147040000Y-104750000D01*
X147040000Y-104750000D02*
X147080000Y-104710000D01*
X147030000Y-101980000D02*
X149110000Y-101980000D01*
X149110000Y-101980000D02*
X149120000Y-101970000D01*
X145250000Y-99220000D02*
X147180000Y-99220000D01*
X147180000Y-99220000D02*
X147190000Y-99230000D01*
D20*
X136880000Y-109670000D02*
X138830000Y-109670000D01*
X136531000Y-109321000D02*
X136880000Y-109670000D01*
X135243000Y-109321000D02*
X136531000Y-109321000D01*
X139299000Y-109321000D02*
X138890000Y-109730000D01*
X139299000Y-109321000D02*
X140577000Y-109321000D01*
X138830000Y-109670000D02*
X138890000Y-109730000D01*
X136770000Y-108020000D02*
X138790000Y-108020000D01*
X136764400Y-108025600D02*
X136770000Y-108020000D01*
X135243000Y-108025600D02*
X136764400Y-108025600D01*
X138875600Y-108025600D02*
X138830000Y-107980000D01*
X138875600Y-108025600D02*
X140577000Y-108025600D01*
X138790000Y-108020000D02*
X138830000Y-107980000D01*
D22*
X134129000Y-103479000D02*
X133660000Y-103010000D01*
X135243000Y-103479000D02*
X134129000Y-103479000D01*
D20*
X140577000Y-105434800D02*
X141595200Y-105434800D01*
X141595200Y-105434800D02*
X142280000Y-104750000D01*
X142280000Y-104750000D02*
X142820000Y-104750000D01*
X140577000Y-106069800D02*
X141620200Y-106069800D01*
X141620200Y-106069800D02*
X142820000Y-104870000D01*
X142820000Y-104870000D02*
X142820000Y-104750000D01*
D21*
X142820000Y-104750000D02*
X142820000Y-107010000D01*
X142820000Y-107010000D02*
X143530000Y-107720000D01*
X143530000Y-107720000D02*
X143530000Y-111030000D01*
X143530000Y-111030000D02*
X143950000Y-111450000D01*
D20*
X140577000Y-106069800D02*
X138509800Y-106069800D01*
X138509800Y-106069800D02*
X138450000Y-106010000D01*
X135243000Y-106069800D02*
X137270200Y-106069800D01*
X137270200Y-106069800D02*
X137330000Y-106010000D01*
X135243000Y-105434800D02*
X136754800Y-105434800D01*
X139000000Y-105460000D02*
X140551800Y-105460000D01*
D21*
X138450000Y-106010000D02*
X139000000Y-105460000D01*
X137330000Y-106010000D02*
X138450000Y-106010000D01*
X136754800Y-105434800D02*
X137330000Y-106010000D01*
D20*
X140551800Y-105460000D02*
X140577000Y-105434800D01*
D22*
X143950000Y-108140000D02*
X143530000Y-107720000D01*
X142805200Y-104764800D02*
X142820000Y-104750000D01*
X143290000Y-107480000D02*
X143530000Y-107720000D01*
X142820000Y-107010000D02*
X143530000Y-107720000D01*
X142820000Y-105210000D02*
X142820000Y-104750000D01*
D23*
X131410000Y-104980000D02*
X131990000Y-104980000D01*
X131990000Y-104980000D02*
X132856000Y-104114000D01*
X132856000Y-104114000D02*
X135243000Y-104114000D01*
D22*
X131410000Y-104980000D02*
X131980000Y-104980000D01*
D23*
X131410000Y-99900000D02*
X131560000Y-99900000D01*
X131560000Y-99900000D02*
X133340000Y-101680000D01*
X138194000Y-104114000D02*
X140577000Y-104114000D01*
X135760000Y-101680000D02*
X138194000Y-104114000D01*
X133340000Y-101680000D02*
X135760000Y-101680000D01*
D22*
X131410000Y-99900000D02*
X132310000Y-99900000D01*
D23*
X131410000Y-102440000D02*
X132990000Y-102440000D01*
X138134400Y-104774400D02*
X140577000Y-104774400D01*
X135530000Y-102170000D02*
X138134400Y-104774400D01*
X133260000Y-102170000D02*
X135530000Y-102170000D01*
X132990000Y-102440000D02*
X133260000Y-102170000D01*
X131410000Y-107520000D02*
X132050000Y-107520000D01*
X132050000Y-107520000D02*
X133870000Y-105700000D01*
X133945600Y-104774400D02*
X135243000Y-104774400D01*
X133870000Y-104850000D02*
X133945600Y-104774400D01*
X133870000Y-105700000D02*
X133870000Y-104850000D01*
D22*
X131410000Y-107520000D02*
X131700000Y-107520000D01*
D20*
X135243000Y-107390600D02*
X134229400Y-107390600D01*
X134229400Y-107390600D02*
X133670000Y-107950000D01*
X135243000Y-106730200D02*
X134169800Y-106730200D01*
D21*
X135530000Y-112810000D02*
X136700000Y-112810000D01*
X133670000Y-110950000D02*
X135530000Y-112810000D01*
X133670000Y-107230000D02*
X133670000Y-107950000D01*
X133670000Y-107950000D02*
X133670000Y-110950000D01*
X134169800Y-106730200D02*
X133670000Y-107230000D01*
D20*
X140577000Y-107390600D02*
X141440600Y-107390600D01*
X141440600Y-107390600D02*
X141910000Y-107860000D01*
X140577000Y-106730200D02*
X141740200Y-106730200D01*
D21*
X140710000Y-112810000D02*
X139240000Y-112810000D01*
X141910000Y-111610000D02*
X140710000Y-112810000D01*
X141910000Y-106900000D02*
X141910000Y-107860000D01*
X141910000Y-107860000D02*
X141910000Y-111610000D01*
X141740200Y-106730200D02*
X141910000Y-106900000D01*
D22*
X139240000Y-112810000D02*
X140100000Y-112810000D01*
D23*
G36*
X149809800Y-115249800D02*
X147836200Y-115249800D01*
X147836200Y-111476374D01*
X147836200Y-111423626D01*
X147733727Y-110908458D01*
X147441907Y-110471719D01*
X147005168Y-110179899D01*
X146490000Y-110077426D01*
X145974832Y-110179899D01*
X145538093Y-110471719D01*
X145302669Y-110824055D01*
X145302669Y-110434000D01*
X145278241Y-110308096D01*
X145205550Y-110197438D01*
X145095813Y-110123364D01*
X144966000Y-110097331D01*
X144165000Y-110097331D01*
X144165000Y-109306669D01*
X144530000Y-109306669D01*
X144655904Y-109282241D01*
X144766562Y-109209550D01*
X144840636Y-109099813D01*
X144866669Y-108970000D01*
X144866669Y-106470000D01*
X144842241Y-106344096D01*
X144769550Y-106233438D01*
X144659813Y-106159364D01*
X144530000Y-106133331D01*
X143455000Y-106133331D01*
X143455000Y-105711669D01*
X143570000Y-105711669D01*
X143695904Y-105687241D01*
X143806562Y-105614550D01*
X143880636Y-105504813D01*
X143906669Y-105375000D01*
X143906669Y-104125000D01*
X143882241Y-103999096D01*
X143809550Y-103888438D01*
X143699813Y-103814364D01*
X143570000Y-103788331D01*
X142979200Y-103788331D01*
X142979200Y-103477650D01*
X142979200Y-102030800D01*
X142979200Y-101929200D01*
X142979200Y-100482350D01*
X142896650Y-100399800D01*
X142699200Y-100399800D01*
X142699200Y-100092650D01*
X142699200Y-99270800D01*
X142699200Y-99169200D01*
X142699200Y-98347350D01*
X142616650Y-98264800D01*
X141934319Y-98264800D01*
X141812957Y-98315070D01*
X141720070Y-98407957D01*
X141669800Y-98529319D01*
X141669800Y-98660681D01*
X141669800Y-99086650D01*
X141752350Y-99169200D01*
X142699200Y-99169200D01*
X142699200Y-99270800D01*
X141752350Y-99270800D01*
X141669800Y-99353350D01*
X141669800Y-99779319D01*
X141669800Y-99910681D01*
X141720070Y-100032043D01*
X141812957Y-100124930D01*
X141934319Y-100175200D01*
X142616650Y-100175200D01*
X142699200Y-100092650D01*
X142699200Y-100399800D01*
X141964319Y-100399800D01*
X141842957Y-100450070D01*
X141750070Y-100542957D01*
X141699800Y-100664319D01*
X141699800Y-100795681D01*
X141699800Y-101846650D01*
X141782350Y-101929200D01*
X142979200Y-101929200D01*
X142979200Y-102030800D01*
X141782350Y-102030800D01*
X141699800Y-102113350D01*
X141699800Y-103164319D01*
X141699800Y-103295681D01*
X141750070Y-103417043D01*
X141842957Y-103509930D01*
X141964319Y-103560200D01*
X142896650Y-103560200D01*
X142979200Y-103477650D01*
X142979200Y-103788331D01*
X142070000Y-103788331D01*
X141944096Y-103812759D01*
X141833438Y-103885450D01*
X141759364Y-103995187D01*
X141733331Y-104125000D01*
X141733331Y-104614169D01*
X141548669Y-104798831D01*
X141548669Y-104571200D01*
X141524241Y-104445296D01*
X141523275Y-104443825D01*
X141548669Y-104317200D01*
X141548669Y-103910800D01*
X141525078Y-103789214D01*
X141542200Y-103747881D01*
X141542200Y-103612350D01*
X141542200Y-103345650D01*
X141542200Y-103210119D01*
X141491930Y-103088757D01*
X141399043Y-102995870D01*
X141277681Y-102945600D01*
X141146319Y-102945600D01*
X141100736Y-102945600D01*
X141100736Y-99780617D01*
X141100736Y-99259383D01*
X140900467Y-98773798D01*
X140529617Y-98401815D01*
X140044645Y-98200066D01*
X140040617Y-98199268D01*
X139830800Y-98257372D01*
X139830800Y-99469200D01*
X141042695Y-99469200D01*
X141100736Y-99259383D01*
X141100736Y-99780617D01*
X141042695Y-99570800D01*
X139830800Y-99570800D01*
X139830800Y-100782628D01*
X140040617Y-100840732D01*
X140044645Y-100839934D01*
X140529617Y-100638185D01*
X140900467Y-100266202D01*
X141100736Y-99780617D01*
X141100736Y-102945600D01*
X140710350Y-102945600D01*
X140627800Y-103028150D01*
X140627800Y-103428200D01*
X141459650Y-103428200D01*
X141542200Y-103345650D01*
X141542200Y-103612350D01*
X141459650Y-103529800D01*
X140627800Y-103529800D01*
X140627800Y-103549800D01*
X140526200Y-103549800D01*
X140526200Y-103529800D01*
X140526200Y-103428200D01*
X140526200Y-103028150D01*
X140443650Y-102945600D01*
X140007681Y-102945600D01*
X139876319Y-102945600D01*
X139754957Y-102995870D01*
X139729200Y-103021627D01*
X139729200Y-100782628D01*
X139729200Y-99570800D01*
X139709200Y-99570800D01*
X139709200Y-99469200D01*
X139729200Y-99469200D01*
X139729200Y-98257372D01*
X139519383Y-98199268D01*
X139515355Y-98200066D01*
X139030383Y-98401815D01*
X138659533Y-98773798D01*
X138592669Y-98935920D01*
X138592669Y-98504000D01*
X138568241Y-98378096D01*
X138495550Y-98267438D01*
X138385813Y-98193364D01*
X138256000Y-98167331D01*
X136224000Y-98167331D01*
X136098096Y-98191759D01*
X135987438Y-98264450D01*
X135913364Y-98374187D01*
X135887331Y-98504000D01*
X135887331Y-100536000D01*
X135911759Y-100661904D01*
X135984450Y-100772562D01*
X136094187Y-100846636D01*
X136224000Y-100872669D01*
X138256000Y-100872669D01*
X138381904Y-100848241D01*
X138492562Y-100775550D01*
X138566636Y-100665813D01*
X138592669Y-100536000D01*
X138592669Y-100104079D01*
X138659533Y-100266202D01*
X139030383Y-100638185D01*
X139515355Y-100839934D01*
X139519383Y-100840732D01*
X139729200Y-100782628D01*
X139729200Y-103021627D01*
X139662070Y-103088757D01*
X139611800Y-103210119D01*
X139611800Y-103345650D01*
X139694350Y-103428200D01*
X140526200Y-103428200D01*
X140526200Y-103529800D01*
X139694350Y-103529800D01*
X139611800Y-103612350D01*
X139611800Y-103707600D01*
X138362336Y-103707600D01*
X136047368Y-101392632D01*
X135915523Y-101304535D01*
X135760000Y-101273600D01*
X133508336Y-101273600D01*
X132651599Y-100416863D01*
X132691701Y-100356847D01*
X132782574Y-99900000D01*
X132691701Y-99443153D01*
X132432918Y-99055856D01*
X132045621Y-98797073D01*
X131588774Y-98706200D01*
X131231226Y-98706200D01*
X130774379Y-98797073D01*
X130387082Y-99055856D01*
X130128299Y-99443153D01*
X130037426Y-99900000D01*
X130128299Y-100356847D01*
X130387082Y-100744144D01*
X130774379Y-101002927D01*
X131231226Y-101093800D01*
X131588774Y-101093800D01*
X132045621Y-101002927D01*
X132071139Y-100985875D01*
X132970264Y-101885000D01*
X132821664Y-102033600D01*
X132701735Y-102033600D01*
X132691701Y-101983153D01*
X132432918Y-101595856D01*
X132045621Y-101337073D01*
X131588774Y-101246200D01*
X131231226Y-101246200D01*
X130774379Y-101337073D01*
X130387082Y-101595856D01*
X130128299Y-101983153D01*
X130037426Y-102440000D01*
X130128299Y-102896847D01*
X130387082Y-103284144D01*
X130774379Y-103542927D01*
X131231226Y-103633800D01*
X131588774Y-103633800D01*
X132045621Y-103542927D01*
X132432918Y-103284144D01*
X132691701Y-102896847D01*
X132701735Y-102846400D01*
X132889100Y-102846400D01*
X132885435Y-102855227D01*
X132885166Y-103163421D01*
X133002859Y-103448259D01*
X133220595Y-103666376D01*
X133319873Y-103707600D01*
X132856000Y-103707600D01*
X132700477Y-103738535D01*
X132568632Y-103826632D01*
X132328906Y-104066357D01*
X132045621Y-103877073D01*
X131588774Y-103786200D01*
X131231226Y-103786200D01*
X130774379Y-103877073D01*
X130387082Y-104135856D01*
X130128299Y-104523153D01*
X130037426Y-104980000D01*
X130128299Y-105436847D01*
X130387082Y-105824144D01*
X130774379Y-106082927D01*
X131231226Y-106173800D01*
X131588774Y-106173800D01*
X132045621Y-106082927D01*
X132432918Y-105824144D01*
X132691701Y-105436847D01*
X132782574Y-104980000D01*
X132746432Y-104798303D01*
X133024336Y-104520400D01*
X133624863Y-104520400D01*
X133582632Y-104562632D01*
X133494535Y-104694477D01*
X133463600Y-104850000D01*
X133463600Y-105531664D01*
X132611745Y-106383518D01*
X132555813Y-106345764D01*
X132426000Y-106319731D01*
X130394000Y-106319731D01*
X130268096Y-106344159D01*
X130157438Y-106416850D01*
X130083364Y-106526587D01*
X130057331Y-106656400D01*
X130057331Y-108383600D01*
X130081759Y-108509504D01*
X130154450Y-108620162D01*
X130264187Y-108694236D01*
X130394000Y-108720269D01*
X132426000Y-108720269D01*
X132551904Y-108695841D01*
X132662562Y-108623150D01*
X132736636Y-108513413D01*
X132762669Y-108383600D01*
X132762669Y-107382067D01*
X133064861Y-107079874D01*
X133035000Y-107230000D01*
X133035000Y-107950000D01*
X133035000Y-110950000D01*
X133083336Y-111193004D01*
X133220987Y-111399013D01*
X135080987Y-113259013D01*
X135286996Y-113396664D01*
X135347331Y-113408665D01*
X135347331Y-113826000D01*
X135371759Y-113951904D01*
X135444450Y-114062562D01*
X135554187Y-114136636D01*
X135684000Y-114162669D01*
X137716000Y-114162669D01*
X137841904Y-114138241D01*
X137952562Y-114065550D01*
X138026636Y-113955813D01*
X138052669Y-113826000D01*
X138052669Y-113435944D01*
X138288093Y-113788281D01*
X138724832Y-114080101D01*
X139240000Y-114182574D01*
X139755168Y-114080101D01*
X140191907Y-113788281D01*
X140421280Y-113445000D01*
X140710000Y-113445000D01*
X140953004Y-113396664D01*
X141159013Y-113259013D01*
X142359013Y-112059013D01*
X142496664Y-111853005D01*
X142496664Y-111853004D01*
X142545000Y-111610000D01*
X142545000Y-109306669D01*
X142895000Y-109306669D01*
X142895000Y-110104897D01*
X142808096Y-110121759D01*
X142697438Y-110194450D01*
X142623364Y-110304187D01*
X142597331Y-110434000D01*
X142597331Y-112466000D01*
X142621759Y-112591904D01*
X142694450Y-112702562D01*
X142804187Y-112776636D01*
X142934000Y-112802669D01*
X144966000Y-112802669D01*
X145091904Y-112778241D01*
X145202562Y-112705550D01*
X145276636Y-112595813D01*
X145302669Y-112466000D01*
X145302669Y-112075944D01*
X145538093Y-112428281D01*
X145974832Y-112720101D01*
X146490000Y-112822574D01*
X147005168Y-112720101D01*
X147441907Y-112428281D01*
X147733727Y-111991542D01*
X147836200Y-111476374D01*
X147836200Y-115249800D01*
X129080200Y-115249800D01*
X129080200Y-97230200D01*
X149809800Y-97230200D01*
X149809800Y-107133970D01*
X149793217Y-107127084D01*
X149793217Y-101836699D01*
X149690959Y-101589217D01*
X149501778Y-101399706D01*
X149254475Y-101297017D01*
X148986699Y-101296783D01*
X148870005Y-101345000D01*
X148366669Y-101345000D01*
X148366669Y-100730000D01*
X148342241Y-100604096D01*
X148269550Y-100493438D01*
X148159813Y-100419364D01*
X148030000Y-100393331D01*
X147863217Y-100393331D01*
X147863217Y-99096699D01*
X147760959Y-98849217D01*
X147571778Y-98659706D01*
X147324475Y-98557017D01*
X147056699Y-98556783D01*
X146988408Y-98585000D01*
X146334728Y-98585000D01*
X146312241Y-98469096D01*
X146239550Y-98358438D01*
X146129813Y-98284364D01*
X146000000Y-98258331D01*
X144500000Y-98258331D01*
X144374096Y-98282759D01*
X144263438Y-98355450D01*
X144189364Y-98465187D01*
X144163331Y-98595000D01*
X144163331Y-99845000D01*
X144187759Y-99970904D01*
X144260450Y-100081562D01*
X144370187Y-100155636D01*
X144500000Y-100181669D01*
X146000000Y-100181669D01*
X146125904Y-100157241D01*
X146236562Y-100084550D01*
X146310636Y-99974813D01*
X146334663Y-99855000D01*
X146939968Y-99855000D01*
X147055525Y-99902983D01*
X147323301Y-99903217D01*
X147570783Y-99800959D01*
X147760294Y-99611778D01*
X147862983Y-99364475D01*
X147863217Y-99096699D01*
X147863217Y-100393331D01*
X146030000Y-100393331D01*
X145904096Y-100417759D01*
X145793438Y-100490450D01*
X145719364Y-100600187D01*
X145693331Y-100730000D01*
X145693331Y-103230000D01*
X145717759Y-103355904D01*
X145790450Y-103466562D01*
X145900187Y-103540636D01*
X146030000Y-103566669D01*
X148030000Y-103566669D01*
X148155904Y-103542241D01*
X148266562Y-103469550D01*
X148340636Y-103359813D01*
X148366669Y-103230000D01*
X148366669Y-102615000D01*
X148918134Y-102615000D01*
X148985525Y-102642983D01*
X149253301Y-102643217D01*
X149500783Y-102540959D01*
X149690294Y-102351778D01*
X149792983Y-102104475D01*
X149793217Y-101836699D01*
X149793217Y-107127084D01*
X149624475Y-107057017D01*
X149356699Y-107056783D01*
X149288408Y-107085000D01*
X148866669Y-107085000D01*
X148866669Y-106470000D01*
X148842241Y-106344096D01*
X148769550Y-106233438D01*
X148659813Y-106159364D01*
X148530000Y-106133331D01*
X147753217Y-106133331D01*
X147753217Y-104576699D01*
X147650959Y-104329217D01*
X147461778Y-104139706D01*
X147214475Y-104037017D01*
X146946699Y-104036783D01*
X146757400Y-104115000D01*
X146404728Y-104115000D01*
X146382241Y-103999096D01*
X146309550Y-103888438D01*
X146199813Y-103814364D01*
X146070000Y-103788331D01*
X144570000Y-103788331D01*
X144444096Y-103812759D01*
X144360200Y-103867870D01*
X144360200Y-103295681D01*
X144360200Y-103164319D01*
X144360200Y-102113350D01*
X144360200Y-101846650D01*
X144360200Y-100795681D01*
X144360200Y-100664319D01*
X144309930Y-100542957D01*
X144217043Y-100450070D01*
X144095681Y-100399800D01*
X143830200Y-100399800D01*
X143830200Y-99910681D01*
X143830200Y-99779319D01*
X143830200Y-99353350D01*
X143830200Y-99086650D01*
X143830200Y-98660681D01*
X143830200Y-98529319D01*
X143779930Y-98407957D01*
X143687043Y-98315070D01*
X143565681Y-98264800D01*
X142883350Y-98264800D01*
X142800800Y-98347350D01*
X142800800Y-99169200D01*
X143747650Y-99169200D01*
X143830200Y-99086650D01*
X143830200Y-99353350D01*
X143747650Y-99270800D01*
X142800800Y-99270800D01*
X142800800Y-100092650D01*
X142883350Y-100175200D01*
X143565681Y-100175200D01*
X143687043Y-100124930D01*
X143779930Y-100032043D01*
X143830200Y-99910681D01*
X143830200Y-100399800D01*
X143163350Y-100399800D01*
X143080800Y-100482350D01*
X143080800Y-101929200D01*
X144277650Y-101929200D01*
X144360200Y-101846650D01*
X144360200Y-102113350D01*
X144277650Y-102030800D01*
X143080800Y-102030800D01*
X143080800Y-103477650D01*
X143163350Y-103560200D01*
X144095681Y-103560200D01*
X144217043Y-103509930D01*
X144309930Y-103417043D01*
X144360200Y-103295681D01*
X144360200Y-103867870D01*
X144333438Y-103885450D01*
X144259364Y-103995187D01*
X144233331Y-104125000D01*
X144233331Y-105375000D01*
X144257759Y-105500904D01*
X144330450Y-105611562D01*
X144440187Y-105685636D01*
X144570000Y-105711669D01*
X146070000Y-105711669D01*
X146195904Y-105687241D01*
X146306562Y-105614550D01*
X146380636Y-105504813D01*
X146404663Y-105385000D01*
X147040000Y-105385000D01*
X147049682Y-105383074D01*
X147213301Y-105383217D01*
X147460783Y-105280959D01*
X147650294Y-105091778D01*
X147752983Y-104844475D01*
X147753217Y-104576699D01*
X147753217Y-106133331D01*
X146530000Y-106133331D01*
X146404096Y-106157759D01*
X146293438Y-106230450D01*
X146219364Y-106340187D01*
X146193331Y-106470000D01*
X146193331Y-108970000D01*
X146217759Y-109095904D01*
X146290450Y-109206562D01*
X146400187Y-109280636D01*
X146530000Y-109306669D01*
X148530000Y-109306669D01*
X148655904Y-109282241D01*
X148766562Y-109209550D01*
X148840636Y-109099813D01*
X148866669Y-108970000D01*
X148866669Y-108355000D01*
X149239968Y-108355000D01*
X149355525Y-108402983D01*
X149623301Y-108403217D01*
X149809800Y-108326156D01*
X149809800Y-115249800D01*
X149809800Y-115249800D01*
G37*
X149809800Y-115249800D02*
X147836200Y-115249800D01*
X147836200Y-111476374D01*
X147836200Y-111423626D01*
X147733727Y-110908458D01*
X147441907Y-110471719D01*
X147005168Y-110179899D01*
X146490000Y-110077426D01*
X145974832Y-110179899D01*
X145538093Y-110471719D01*
X145302669Y-110824055D01*
X145302669Y-110434000D01*
X145278241Y-110308096D01*
X145205550Y-110197438D01*
X145095813Y-110123364D01*
X144966000Y-110097331D01*
X144165000Y-110097331D01*
X144165000Y-109306669D01*
X144530000Y-109306669D01*
X144655904Y-109282241D01*
X144766562Y-109209550D01*
X144840636Y-109099813D01*
X144866669Y-108970000D01*
X144866669Y-106470000D01*
X144842241Y-106344096D01*
X144769550Y-106233438D01*
X144659813Y-106159364D01*
X144530000Y-106133331D01*
X143455000Y-106133331D01*
X143455000Y-105711669D01*
X143570000Y-105711669D01*
X143695904Y-105687241D01*
X143806562Y-105614550D01*
X143880636Y-105504813D01*
X143906669Y-105375000D01*
X143906669Y-104125000D01*
X143882241Y-103999096D01*
X143809550Y-103888438D01*
X143699813Y-103814364D01*
X143570000Y-103788331D01*
X142979200Y-103788331D01*
X142979200Y-103477650D01*
X142979200Y-102030800D01*
X142979200Y-101929200D01*
X142979200Y-100482350D01*
X142896650Y-100399800D01*
X142699200Y-100399800D01*
X142699200Y-100092650D01*
X142699200Y-99270800D01*
X142699200Y-99169200D01*
X142699200Y-98347350D01*
X142616650Y-98264800D01*
X141934319Y-98264800D01*
X141812957Y-98315070D01*
X141720070Y-98407957D01*
X141669800Y-98529319D01*
X141669800Y-98660681D01*
X141669800Y-99086650D01*
X141752350Y-99169200D01*
X142699200Y-99169200D01*
X142699200Y-99270800D01*
X141752350Y-99270800D01*
X141669800Y-99353350D01*
X141669800Y-99779319D01*
X141669800Y-99910681D01*
X141720070Y-100032043D01*
X141812957Y-100124930D01*
X141934319Y-100175200D01*
X142616650Y-100175200D01*
X142699200Y-100092650D01*
X142699200Y-100399800D01*
X141964319Y-100399800D01*
X141842957Y-100450070D01*
X141750070Y-100542957D01*
X141699800Y-100664319D01*
X141699800Y-100795681D01*
X141699800Y-101846650D01*
X141782350Y-101929200D01*
X142979200Y-101929200D01*
X142979200Y-102030800D01*
X141782350Y-102030800D01*
X141699800Y-102113350D01*
X141699800Y-103164319D01*
X141699800Y-103295681D01*
X141750070Y-103417043D01*
X141842957Y-103509930D01*
X141964319Y-103560200D01*
X142896650Y-103560200D01*
X142979200Y-103477650D01*
X142979200Y-103788331D01*
X142070000Y-103788331D01*
X141944096Y-103812759D01*
X141833438Y-103885450D01*
X141759364Y-103995187D01*
X141733331Y-104125000D01*
X141733331Y-104614169D01*
X141548669Y-104798831D01*
X141548669Y-104571200D01*
X141524241Y-104445296D01*
X141523275Y-104443825D01*
X141548669Y-104317200D01*
X141548669Y-103910800D01*
X141525078Y-103789214D01*
X141542200Y-103747881D01*
X141542200Y-103612350D01*
X141542200Y-103345650D01*
X141542200Y-103210119D01*
X141491930Y-103088757D01*
X141399043Y-102995870D01*
X141277681Y-102945600D01*
X141146319Y-102945600D01*
X141100736Y-102945600D01*
X141100736Y-99780617D01*
X141100736Y-99259383D01*
X140900467Y-98773798D01*
X140529617Y-98401815D01*
X140044645Y-98200066D01*
X140040617Y-98199268D01*
X139830800Y-98257372D01*
X139830800Y-99469200D01*
X141042695Y-99469200D01*
X141100736Y-99259383D01*
X141100736Y-99780617D01*
X141042695Y-99570800D01*
X139830800Y-99570800D01*
X139830800Y-100782628D01*
X140040617Y-100840732D01*
X140044645Y-100839934D01*
X140529617Y-100638185D01*
X140900467Y-100266202D01*
X141100736Y-99780617D01*
X141100736Y-102945600D01*
X140710350Y-102945600D01*
X140627800Y-103028150D01*
X140627800Y-103428200D01*
X141459650Y-103428200D01*
X141542200Y-103345650D01*
X141542200Y-103612350D01*
X141459650Y-103529800D01*
X140627800Y-103529800D01*
X140627800Y-103549800D01*
X140526200Y-103549800D01*
X140526200Y-103529800D01*
X140526200Y-103428200D01*
X140526200Y-103028150D01*
X140443650Y-102945600D01*
X140007681Y-102945600D01*
X139876319Y-102945600D01*
X139754957Y-102995870D01*
X139729200Y-103021627D01*
X139729200Y-100782628D01*
X139729200Y-99570800D01*
X139709200Y-99570800D01*
X139709200Y-99469200D01*
X139729200Y-99469200D01*
X139729200Y-98257372D01*
X139519383Y-98199268D01*
X139515355Y-98200066D01*
X139030383Y-98401815D01*
X138659533Y-98773798D01*
X138592669Y-98935920D01*
X138592669Y-98504000D01*
X138568241Y-98378096D01*
X138495550Y-98267438D01*
X138385813Y-98193364D01*
X138256000Y-98167331D01*
X136224000Y-98167331D01*
X136098096Y-98191759D01*
X135987438Y-98264450D01*
X135913364Y-98374187D01*
X135887331Y-98504000D01*
X135887331Y-100536000D01*
X135911759Y-100661904D01*
X135984450Y-100772562D01*
X136094187Y-100846636D01*
X136224000Y-100872669D01*
X138256000Y-100872669D01*
X138381904Y-100848241D01*
X138492562Y-100775550D01*
X138566636Y-100665813D01*
X138592669Y-100536000D01*
X138592669Y-100104079D01*
X138659533Y-100266202D01*
X139030383Y-100638185D01*
X139515355Y-100839934D01*
X139519383Y-100840732D01*
X139729200Y-100782628D01*
X139729200Y-103021627D01*
X139662070Y-103088757D01*
X139611800Y-103210119D01*
X139611800Y-103345650D01*
X139694350Y-103428200D01*
X140526200Y-103428200D01*
X140526200Y-103529800D01*
X139694350Y-103529800D01*
X139611800Y-103612350D01*
X139611800Y-103707600D01*
X138362336Y-103707600D01*
X136047368Y-101392632D01*
X135915523Y-101304535D01*
X135760000Y-101273600D01*
X133508336Y-101273600D01*
X132651599Y-100416863D01*
X132691701Y-100356847D01*
X132782574Y-99900000D01*
X132691701Y-99443153D01*
X132432918Y-99055856D01*
X132045621Y-98797073D01*
X131588774Y-98706200D01*
X131231226Y-98706200D01*
X130774379Y-98797073D01*
X130387082Y-99055856D01*
X130128299Y-99443153D01*
X130037426Y-99900000D01*
X130128299Y-100356847D01*
X130387082Y-100744144D01*
X130774379Y-101002927D01*
X131231226Y-101093800D01*
X131588774Y-101093800D01*
X132045621Y-101002927D01*
X132071139Y-100985875D01*
X132970264Y-101885000D01*
X132821664Y-102033600D01*
X132701735Y-102033600D01*
X132691701Y-101983153D01*
X132432918Y-101595856D01*
X132045621Y-101337073D01*
X131588774Y-101246200D01*
X131231226Y-101246200D01*
X130774379Y-101337073D01*
X130387082Y-101595856D01*
X130128299Y-101983153D01*
X130037426Y-102440000D01*
X130128299Y-102896847D01*
X130387082Y-103284144D01*
X130774379Y-103542927D01*
X131231226Y-103633800D01*
X131588774Y-103633800D01*
X132045621Y-103542927D01*
X132432918Y-103284144D01*
X132691701Y-102896847D01*
X132701735Y-102846400D01*
X132889100Y-102846400D01*
X132885435Y-102855227D01*
X132885166Y-103163421D01*
X133002859Y-103448259D01*
X133220595Y-103666376D01*
X133319873Y-103707600D01*
X132856000Y-103707600D01*
X132700477Y-103738535D01*
X132568632Y-103826632D01*
X132328906Y-104066357D01*
X132045621Y-103877073D01*
X131588774Y-103786200D01*
X131231226Y-103786200D01*
X130774379Y-103877073D01*
X130387082Y-104135856D01*
X130128299Y-104523153D01*
X130037426Y-104980000D01*
X130128299Y-105436847D01*
X130387082Y-105824144D01*
X130774379Y-106082927D01*
X131231226Y-106173800D01*
X131588774Y-106173800D01*
X132045621Y-106082927D01*
X132432918Y-105824144D01*
X132691701Y-105436847D01*
X132782574Y-104980000D01*
X132746432Y-104798303D01*
X133024336Y-104520400D01*
X133624863Y-104520400D01*
X133582632Y-104562632D01*
X133494535Y-104694477D01*
X133463600Y-104850000D01*
X133463600Y-105531664D01*
X132611745Y-106383518D01*
X132555813Y-106345764D01*
X132426000Y-106319731D01*
X130394000Y-106319731D01*
X130268096Y-106344159D01*
X130157438Y-106416850D01*
X130083364Y-106526587D01*
X130057331Y-106656400D01*
X130057331Y-108383600D01*
X130081759Y-108509504D01*
X130154450Y-108620162D01*
X130264187Y-108694236D01*
X130394000Y-108720269D01*
X132426000Y-108720269D01*
X132551904Y-108695841D01*
X132662562Y-108623150D01*
X132736636Y-108513413D01*
X132762669Y-108383600D01*
X132762669Y-107382067D01*
X133064861Y-107079874D01*
X133035000Y-107230000D01*
X133035000Y-107950000D01*
X133035000Y-110950000D01*
X133083336Y-111193004D01*
X133220987Y-111399013D01*
X135080987Y-113259013D01*
X135286996Y-113396664D01*
X135347331Y-113408665D01*
X135347331Y-113826000D01*
X135371759Y-113951904D01*
X135444450Y-114062562D01*
X135554187Y-114136636D01*
X135684000Y-114162669D01*
X137716000Y-114162669D01*
X137841904Y-114138241D01*
X137952562Y-114065550D01*
X138026636Y-113955813D01*
X138052669Y-113826000D01*
X138052669Y-113435944D01*
X138288093Y-113788281D01*
X138724832Y-114080101D01*
X139240000Y-114182574D01*
X139755168Y-114080101D01*
X140191907Y-113788281D01*
X140421280Y-113445000D01*
X140710000Y-113445000D01*
X140953004Y-113396664D01*
X141159013Y-113259013D01*
X142359013Y-112059013D01*
X142496664Y-111853005D01*
X142496664Y-111853004D01*
X142545000Y-111610000D01*
X142545000Y-109306669D01*
X142895000Y-109306669D01*
X142895000Y-110104897D01*
X142808096Y-110121759D01*
X142697438Y-110194450D01*
X142623364Y-110304187D01*
X142597331Y-110434000D01*
X142597331Y-112466000D01*
X142621759Y-112591904D01*
X142694450Y-112702562D01*
X142804187Y-112776636D01*
X142934000Y-112802669D01*
X144966000Y-112802669D01*
X145091904Y-112778241D01*
X145202562Y-112705550D01*
X145276636Y-112595813D01*
X145302669Y-112466000D01*
X145302669Y-112075944D01*
X145538093Y-112428281D01*
X145974832Y-112720101D01*
X146490000Y-112822574D01*
X147005168Y-112720101D01*
X147441907Y-112428281D01*
X147733727Y-111991542D01*
X147836200Y-111476374D01*
X147836200Y-115249800D01*
X129080200Y-115249800D01*
X129080200Y-97230200D01*
X149809800Y-97230200D01*
X149809800Y-107133970D01*
X149793217Y-107127084D01*
X149793217Y-101836699D01*
X149690959Y-101589217D01*
X149501778Y-101399706D01*
X149254475Y-101297017D01*
X148986699Y-101296783D01*
X148870005Y-101345000D01*
X148366669Y-101345000D01*
X148366669Y-100730000D01*
X148342241Y-100604096D01*
X148269550Y-100493438D01*
X148159813Y-100419364D01*
X148030000Y-100393331D01*
X147863217Y-100393331D01*
X147863217Y-99096699D01*
X147760959Y-98849217D01*
X147571778Y-98659706D01*
X147324475Y-98557017D01*
X147056699Y-98556783D01*
X146988408Y-98585000D01*
X146334728Y-98585000D01*
X146312241Y-98469096D01*
X146239550Y-98358438D01*
X146129813Y-98284364D01*
X146000000Y-98258331D01*
X144500000Y-98258331D01*
X144374096Y-98282759D01*
X144263438Y-98355450D01*
X144189364Y-98465187D01*
X144163331Y-98595000D01*
X144163331Y-99845000D01*
X144187759Y-99970904D01*
X144260450Y-100081562D01*
X144370187Y-100155636D01*
X144500000Y-100181669D01*
X146000000Y-100181669D01*
X146125904Y-100157241D01*
X146236562Y-100084550D01*
X146310636Y-99974813D01*
X146334663Y-99855000D01*
X146939968Y-99855000D01*
X147055525Y-99902983D01*
X147323301Y-99903217D01*
X147570783Y-99800959D01*
X147760294Y-99611778D01*
X147862983Y-99364475D01*
X147863217Y-99096699D01*
X147863217Y-100393331D01*
X146030000Y-100393331D01*
X145904096Y-100417759D01*
X145793438Y-100490450D01*
X145719364Y-100600187D01*
X145693331Y-100730000D01*
X145693331Y-103230000D01*
X145717759Y-103355904D01*
X145790450Y-103466562D01*
X145900187Y-103540636D01*
X146030000Y-103566669D01*
X148030000Y-103566669D01*
X148155904Y-103542241D01*
X148266562Y-103469550D01*
X148340636Y-103359813D01*
X148366669Y-103230000D01*
X148366669Y-102615000D01*
X148918134Y-102615000D01*
X148985525Y-102642983D01*
X149253301Y-102643217D01*
X149500783Y-102540959D01*
X149690294Y-102351778D01*
X149792983Y-102104475D01*
X149793217Y-101836699D01*
X149793217Y-107127084D01*
X149624475Y-107057017D01*
X149356699Y-107056783D01*
X149288408Y-107085000D01*
X148866669Y-107085000D01*
X148866669Y-106470000D01*
X148842241Y-106344096D01*
X148769550Y-106233438D01*
X148659813Y-106159364D01*
X148530000Y-106133331D01*
X147753217Y-106133331D01*
X147753217Y-104576699D01*
X147650959Y-104329217D01*
X147461778Y-104139706D01*
X147214475Y-104037017D01*
X146946699Y-104036783D01*
X146757400Y-104115000D01*
X146404728Y-104115000D01*
X146382241Y-103999096D01*
X146309550Y-103888438D01*
X146199813Y-103814364D01*
X146070000Y-103788331D01*
X144570000Y-103788331D01*
X144444096Y-103812759D01*
X144360200Y-103867870D01*
X144360200Y-103295681D01*
X144360200Y-103164319D01*
X144360200Y-102113350D01*
X144360200Y-101846650D01*
X144360200Y-100795681D01*
X144360200Y-100664319D01*
X144309930Y-100542957D01*
X144217043Y-100450070D01*
X144095681Y-100399800D01*
X143830200Y-100399800D01*
X143830200Y-99910681D01*
X143830200Y-99779319D01*
X143830200Y-99353350D01*
X143830200Y-99086650D01*
X143830200Y-98660681D01*
X143830200Y-98529319D01*
X143779930Y-98407957D01*
X143687043Y-98315070D01*
X143565681Y-98264800D01*
X142883350Y-98264800D01*
X142800800Y-98347350D01*
X142800800Y-99169200D01*
X143747650Y-99169200D01*
X143830200Y-99086650D01*
X143830200Y-99353350D01*
X143747650Y-99270800D01*
X142800800Y-99270800D01*
X142800800Y-100092650D01*
X142883350Y-100175200D01*
X143565681Y-100175200D01*
X143687043Y-100124930D01*
X143779930Y-100032043D01*
X143830200Y-99910681D01*
X143830200Y-100399800D01*
X143163350Y-100399800D01*
X143080800Y-100482350D01*
X143080800Y-101929200D01*
X144277650Y-101929200D01*
X144360200Y-101846650D01*
X144360200Y-102113350D01*
X144277650Y-102030800D01*
X143080800Y-102030800D01*
X143080800Y-103477650D01*
X143163350Y-103560200D01*
X144095681Y-103560200D01*
X144217043Y-103509930D01*
X144309930Y-103417043D01*
X144360200Y-103295681D01*
X144360200Y-103867870D01*
X144333438Y-103885450D01*
X144259364Y-103995187D01*
X144233331Y-104125000D01*
X144233331Y-105375000D01*
X144257759Y-105500904D01*
X144330450Y-105611562D01*
X144440187Y-105685636D01*
X144570000Y-105711669D01*
X146070000Y-105711669D01*
X146195904Y-105687241D01*
X146306562Y-105614550D01*
X146380636Y-105504813D01*
X146404663Y-105385000D01*
X147040000Y-105385000D01*
X147049682Y-105383074D01*
X147213301Y-105383217D01*
X147460783Y-105280959D01*
X147650294Y-105091778D01*
X147752983Y-104844475D01*
X147753217Y-104576699D01*
X147753217Y-106133331D01*
X146530000Y-106133331D01*
X146404096Y-106157759D01*
X146293438Y-106230450D01*
X146219364Y-106340187D01*
X146193331Y-106470000D01*
X146193331Y-108970000D01*
X146217759Y-109095904D01*
X146290450Y-109206562D01*
X146400187Y-109280636D01*
X146530000Y-109306669D01*
X148530000Y-109306669D01*
X148655904Y-109282241D01*
X148766562Y-109209550D01*
X148840636Y-109099813D01*
X148866669Y-108970000D01*
X148866669Y-108355000D01*
X149239968Y-108355000D01*
X149355525Y-108402983D01*
X149623301Y-108403217D01*
X149809800Y-108326156D01*
X149809800Y-115249800D01*
M02*
