G04 #@! TF.FileFunction,Legend,Top*
%FSLAX46Y46*%
G04 Gerber Fmt 4.6, Leading zero omitted, Abs format (unit mm)*
G04 Created by KiCad (PCBNEW (2015-01-29 BZR 5396)-product) date 7/20/2015 11:16:08 PM*
%MOMM*%
G01*
G04 APERTURE LIST*
%ADD10C,0.100000*%
%ADD11C,0.125000*%
%ADD12C,0.150000*%
G04 APERTURE END LIST*
D10*
D11*
X136819047Y-97100000D02*
X136771428Y-97076190D01*
X136700000Y-97076190D01*
X136628571Y-97100000D01*
X136580952Y-97147619D01*
X136557143Y-97195238D01*
X136533333Y-97290476D01*
X136533333Y-97361905D01*
X136557143Y-97457143D01*
X136580952Y-97504762D01*
X136628571Y-97552381D01*
X136700000Y-97576190D01*
X136747619Y-97576190D01*
X136819047Y-97552381D01*
X136842857Y-97528571D01*
X136842857Y-97361905D01*
X136747619Y-97361905D01*
X137057143Y-97576190D02*
X137057143Y-97076190D01*
X137342857Y-97576190D01*
X137342857Y-97076190D01*
X137580953Y-97576190D02*
X137580953Y-97076190D01*
X137700000Y-97076190D01*
X137771429Y-97100000D01*
X137819048Y-97147619D01*
X137842857Y-97195238D01*
X137866667Y-97290476D01*
X137866667Y-97361905D01*
X137842857Y-97457143D01*
X137819048Y-97504762D01*
X137771429Y-97552381D01*
X137700000Y-97576190D01*
X137580953Y-97576190D01*
X139163334Y-97146190D02*
X139330001Y-97646190D01*
X139496667Y-97146190D01*
X139949048Y-97598571D02*
X139925238Y-97622381D01*
X139853810Y-97646190D01*
X139806191Y-97646190D01*
X139734762Y-97622381D01*
X139687143Y-97574762D01*
X139663334Y-97527143D01*
X139639524Y-97431905D01*
X139639524Y-97360476D01*
X139663334Y-97265238D01*
X139687143Y-97217619D01*
X139734762Y-97170000D01*
X139806191Y-97146190D01*
X139853810Y-97146190D01*
X139925238Y-97170000D01*
X139949048Y-97193810D01*
X140449048Y-97598571D02*
X140425238Y-97622381D01*
X140353810Y-97646190D01*
X140306191Y-97646190D01*
X140234762Y-97622381D01*
X140187143Y-97574762D01*
X140163334Y-97527143D01*
X140139524Y-97431905D01*
X140139524Y-97360476D01*
X140163334Y-97265238D01*
X140187143Y-97217619D01*
X140234762Y-97170000D01*
X140306191Y-97146190D01*
X140353810Y-97146190D01*
X140425238Y-97170000D01*
X140449048Y-97193810D01*
X142699524Y-113755714D02*
X143080476Y-113755714D01*
X142890000Y-113946190D02*
X142890000Y-113565238D01*
X144082857Y-113996190D02*
X144082857Y-113496190D01*
X144249523Y-113853333D01*
X144416190Y-113496190D01*
X144416190Y-113996190D01*
X144749524Y-113496190D02*
X144844762Y-113496190D01*
X144892381Y-113520000D01*
X144940000Y-113567619D01*
X144963809Y-113662857D01*
X144963809Y-113829524D01*
X144940000Y-113924762D01*
X144892381Y-113972381D01*
X144844762Y-113996190D01*
X144749524Y-113996190D01*
X144701905Y-113972381D01*
X144654286Y-113924762D01*
X144630476Y-113829524D01*
X144630476Y-113662857D01*
X144654286Y-113567619D01*
X144701905Y-113520000D01*
X144749524Y-113496190D01*
X145106667Y-113496190D02*
X145392381Y-113496190D01*
X145249524Y-113996190D02*
X145249524Y-113496190D01*
X145654286Y-113496190D02*
X145749524Y-113496190D01*
X145797143Y-113520000D01*
X145844762Y-113567619D01*
X145868571Y-113662857D01*
X145868571Y-113829524D01*
X145844762Y-113924762D01*
X145797143Y-113972381D01*
X145749524Y-113996190D01*
X145654286Y-113996190D01*
X145606667Y-113972381D01*
X145559048Y-113924762D01*
X145535238Y-113829524D01*
X145535238Y-113662857D01*
X145559048Y-113567619D01*
X145606667Y-113520000D01*
X145654286Y-113496190D01*
X146368572Y-113996190D02*
X146201905Y-113758095D01*
X146082858Y-113996190D02*
X146082858Y-113496190D01*
X146273334Y-113496190D01*
X146320953Y-113520000D01*
X146344762Y-113543810D01*
X146368572Y-113591429D01*
X146368572Y-113662857D01*
X146344762Y-113710476D01*
X146320953Y-113734286D01*
X146273334Y-113758095D01*
X146082858Y-113758095D01*
X146963810Y-113996190D02*
X146963810Y-113496190D01*
X147154286Y-113496190D01*
X147201905Y-113520000D01*
X147225714Y-113543810D01*
X147249524Y-113591429D01*
X147249524Y-113662857D01*
X147225714Y-113710476D01*
X147201905Y-113734286D01*
X147154286Y-113758095D01*
X146963810Y-113758095D01*
X147416191Y-113496190D02*
X147535238Y-113996190D01*
X147630476Y-113639048D01*
X147725714Y-113996190D01*
X147844762Y-113496190D01*
X148320953Y-113996190D02*
X148154286Y-113758095D01*
X148035239Y-113996190D02*
X148035239Y-113496190D01*
X148225715Y-113496190D01*
X148273334Y-113520000D01*
X148297143Y-113543810D01*
X148320953Y-113591429D01*
X148320953Y-113662857D01*
X148297143Y-113710476D01*
X148273334Y-113734286D01*
X148225715Y-113758095D01*
X148035239Y-113758095D01*
X135049048Y-115336190D02*
X135049048Y-114836190D01*
X135215714Y-115193333D01*
X135382381Y-114836190D01*
X135382381Y-115336190D01*
X135715715Y-114836190D02*
X135810953Y-114836190D01*
X135858572Y-114860000D01*
X135906191Y-114907619D01*
X135930000Y-115002857D01*
X135930000Y-115169524D01*
X135906191Y-115264762D01*
X135858572Y-115312381D01*
X135810953Y-115336190D01*
X135715715Y-115336190D01*
X135668096Y-115312381D01*
X135620477Y-115264762D01*
X135596667Y-115169524D01*
X135596667Y-115002857D01*
X135620477Y-114907619D01*
X135668096Y-114860000D01*
X135715715Y-114836190D01*
X136072858Y-114836190D02*
X136358572Y-114836190D01*
X136215715Y-115336190D02*
X136215715Y-114836190D01*
X136620477Y-114836190D02*
X136715715Y-114836190D01*
X136763334Y-114860000D01*
X136810953Y-114907619D01*
X136834762Y-115002857D01*
X136834762Y-115169524D01*
X136810953Y-115264762D01*
X136763334Y-115312381D01*
X136715715Y-115336190D01*
X136620477Y-115336190D01*
X136572858Y-115312381D01*
X136525239Y-115264762D01*
X136501429Y-115169524D01*
X136501429Y-115002857D01*
X136525239Y-114907619D01*
X136572858Y-114860000D01*
X136620477Y-114836190D01*
X137334763Y-115336190D02*
X137168096Y-115098095D01*
X137049049Y-115336190D02*
X137049049Y-114836190D01*
X137239525Y-114836190D01*
X137287144Y-114860000D01*
X137310953Y-114883810D01*
X137334763Y-114931429D01*
X137334763Y-115002857D01*
X137310953Y-115050476D01*
X137287144Y-115074286D01*
X137239525Y-115098095D01*
X137049049Y-115098095D01*
X129023810Y-99300001D02*
X129523810Y-99300001D01*
X129023810Y-99538096D02*
X129523810Y-99538096D01*
X129023810Y-99823810D01*
X129523810Y-99823810D01*
X129476190Y-100038096D02*
X129500000Y-100061906D01*
X129523810Y-100109525D01*
X129523810Y-100228572D01*
X129500000Y-100276191D01*
X129476190Y-100300001D01*
X129428571Y-100323810D01*
X129380952Y-100323810D01*
X129309524Y-100300001D01*
X129023810Y-100014287D01*
X129023810Y-100323810D01*
X128963810Y-102100001D02*
X129463810Y-102100001D01*
X128963810Y-102338096D02*
X129463810Y-102338096D01*
X128963810Y-102623810D01*
X129463810Y-102623810D01*
X128963810Y-103123810D02*
X128963810Y-102838096D01*
X128963810Y-102980953D02*
X129463810Y-102980953D01*
X129392381Y-102933334D01*
X129344762Y-102885715D01*
X129320952Y-102838096D01*
X128963810Y-104187619D02*
X129463810Y-104187619D01*
X129463810Y-104378095D01*
X129440000Y-104425714D01*
X129416190Y-104449523D01*
X129368571Y-104473333D01*
X129297143Y-104473333D01*
X129249524Y-104449523D01*
X129225714Y-104425714D01*
X129201905Y-104378095D01*
X129201905Y-104187619D01*
X129463810Y-104640000D02*
X128963810Y-104759047D01*
X129320952Y-104854285D01*
X128963810Y-104949523D01*
X129463810Y-105068571D01*
X128963810Y-105259048D02*
X129463810Y-105259048D01*
X129106667Y-105425714D01*
X129463810Y-105592381D01*
X128963810Y-105592381D01*
X128937619Y-106882382D02*
X128913810Y-106953811D01*
X128913810Y-107072858D01*
X128937619Y-107120477D01*
X128961429Y-107144287D01*
X129009048Y-107168096D01*
X129056667Y-107168096D01*
X129104286Y-107144287D01*
X129128095Y-107120477D01*
X129151905Y-107072858D01*
X129175714Y-106977620D01*
X129199524Y-106930001D01*
X129223333Y-106906192D01*
X129270952Y-106882382D01*
X129318571Y-106882382D01*
X129366190Y-106906192D01*
X129390000Y-106930001D01*
X129413810Y-106977620D01*
X129413810Y-107096668D01*
X129390000Y-107168096D01*
X129413810Y-107310953D02*
X129413810Y-107596667D01*
X128913810Y-107453810D02*
X129413810Y-107453810D01*
X129175714Y-107930000D02*
X129151905Y-108001429D01*
X129128095Y-108025238D01*
X129080476Y-108049048D01*
X129009048Y-108049048D01*
X128961429Y-108025238D01*
X128937619Y-108001429D01*
X128913810Y-107953810D01*
X128913810Y-107763334D01*
X129413810Y-107763334D01*
X129413810Y-107930000D01*
X129390000Y-107977619D01*
X129366190Y-108001429D01*
X129318571Y-108025238D01*
X129270952Y-108025238D01*
X129223333Y-108001429D01*
X129199524Y-107977619D01*
X129175714Y-107930000D01*
X129175714Y-107763334D01*
X129151905Y-108358572D02*
X128913810Y-108358572D01*
X129413810Y-108191905D02*
X129151905Y-108358572D01*
X129413810Y-108525238D01*
D12*
X144500000Y-98370000D02*
X143500000Y-98370000D01*
X143500000Y-100070000D02*
X144500000Y-100070000D01*
X146030000Y-100505000D02*
X144030000Y-100505000D01*
X144030000Y-103455000D02*
X146030000Y-103455000D01*
X144570000Y-103900000D02*
X143570000Y-103900000D01*
X143570000Y-105600000D02*
X144570000Y-105600000D01*
X146530000Y-106245000D02*
X144530000Y-106245000D01*
X144530000Y-109195000D02*
X146530000Y-109195000D01*
X138510000Y-98250000D02*
X141050000Y-98250000D01*
X135690000Y-97970000D02*
X137240000Y-97970000D01*
X138510000Y-98250000D02*
X138510000Y-100790000D01*
X137240000Y-101070000D02*
X135690000Y-101070000D01*
X135690000Y-101070000D02*
X135690000Y-97970000D01*
X138510000Y-100790000D02*
X141050000Y-100790000D01*
X141050000Y-100790000D02*
X141050000Y-98250000D01*
X132680000Y-106250000D02*
X132680000Y-98630000D01*
X130140000Y-106250000D02*
X130140000Y-98630000D01*
X129860000Y-109070000D02*
X129860000Y-107520000D01*
X132680000Y-98630000D02*
X130140000Y-98630000D01*
X130140000Y-106250000D02*
X132680000Y-106250000D01*
X132960000Y-107520000D02*
X132960000Y-109070000D01*
X132960000Y-109070000D02*
X129860000Y-109070000D01*
X137970000Y-111540000D02*
X140510000Y-111540000D01*
X135150000Y-111260000D02*
X136700000Y-111260000D01*
X137970000Y-111540000D02*
X137970000Y-114080000D01*
X136700000Y-114360000D02*
X135150000Y-114360000D01*
X135150000Y-114360000D02*
X135150000Y-111260000D01*
X137970000Y-114080000D02*
X140510000Y-114080000D01*
X140510000Y-114080000D02*
X140510000Y-111540000D01*
X145220000Y-110180000D02*
X147760000Y-110180000D01*
X142400000Y-109900000D02*
X143950000Y-109900000D01*
X145220000Y-110180000D02*
X145220000Y-112720000D01*
X143950000Y-113000000D02*
X142400000Y-113000000D01*
X142400000Y-113000000D02*
X142400000Y-109900000D01*
X145220000Y-112720000D02*
X147760000Y-112720000D01*
X147760000Y-112720000D02*
X147760000Y-110180000D01*
X139688000Y-110210000D02*
X139688000Y-102590000D01*
X136132000Y-102590000D02*
X136132000Y-110210000D01*
X139688000Y-110210000D02*
X136132000Y-110210000D01*
X136132000Y-102590000D02*
X139688000Y-102590000D01*
X136999210Y-103098000D02*
G75*
G03X136999210Y-103098000I-359210J0D01*
G01*
X138545000Y-102590000D02*
X138545000Y-103352000D01*
X138545000Y-103352000D02*
X137275000Y-103352000D01*
X137275000Y-103352000D02*
X137275000Y-102590000D01*
D11*
X146770477Y-100188571D02*
X146746667Y-100212381D01*
X146675239Y-100236190D01*
X146627620Y-100236190D01*
X146556191Y-100212381D01*
X146508572Y-100164762D01*
X146484763Y-100117143D01*
X146460953Y-100021905D01*
X146460953Y-99950476D01*
X146484763Y-99855238D01*
X146508572Y-99807619D01*
X146556191Y-99760000D01*
X146627620Y-99736190D01*
X146675239Y-99736190D01*
X146746667Y-99760000D01*
X146770477Y-99783810D01*
X147246667Y-100236190D02*
X146960953Y-100236190D01*
X147103810Y-100236190D02*
X147103810Y-99736190D01*
X147056191Y-99807619D01*
X147008572Y-99855238D01*
X146960953Y-99879048D01*
X147556191Y-99736190D02*
X147603810Y-99736190D01*
X147651429Y-99760000D01*
X147675238Y-99783810D01*
X147699048Y-99831429D01*
X147722857Y-99926667D01*
X147722857Y-100045714D01*
X147699048Y-100140952D01*
X147675238Y-100188571D01*
X147651429Y-100212381D01*
X147603810Y-100236190D01*
X147556191Y-100236190D01*
X147508572Y-100212381D01*
X147484762Y-100188571D01*
X147460953Y-100140952D01*
X147437143Y-100045714D01*
X147437143Y-99926667D01*
X147460953Y-99831429D01*
X147484762Y-99783810D01*
X147508572Y-99760000D01*
X147556191Y-99736190D01*
X148199047Y-100236190D02*
X147913333Y-100236190D01*
X148056190Y-100236190D02*
X148056190Y-99736190D01*
X148008571Y-99807619D01*
X147960952Y-99855238D01*
X147913333Y-99879048D01*
X148998571Y-104119523D02*
X149022381Y-104143333D01*
X149046190Y-104214761D01*
X149046190Y-104262380D01*
X149022381Y-104333809D01*
X148974762Y-104381428D01*
X148927143Y-104405237D01*
X148831905Y-104429047D01*
X148760476Y-104429047D01*
X148665238Y-104405237D01*
X148617619Y-104381428D01*
X148570000Y-104333809D01*
X148546190Y-104262380D01*
X148546190Y-104214761D01*
X148570000Y-104143333D01*
X148593810Y-104119523D01*
X149046190Y-103643333D02*
X149046190Y-103929047D01*
X149046190Y-103786190D02*
X148546190Y-103786190D01*
X148617619Y-103833809D01*
X148665238Y-103881428D01*
X148689048Y-103929047D01*
X148546190Y-103333809D02*
X148546190Y-103286190D01*
X148570000Y-103238571D01*
X148593810Y-103214762D01*
X148641429Y-103190952D01*
X148736667Y-103167143D01*
X148855714Y-103167143D01*
X148950952Y-103190952D01*
X148998571Y-103214762D01*
X149022381Y-103238571D01*
X149046190Y-103286190D01*
X149046190Y-103333809D01*
X149022381Y-103381428D01*
X148998571Y-103405238D01*
X148950952Y-103429047D01*
X148855714Y-103452857D01*
X148736667Y-103452857D01*
X148641429Y-103429047D01*
X148593810Y-103405238D01*
X148570000Y-103381428D01*
X148546190Y-103333809D01*
X148593810Y-102976667D02*
X148570000Y-102952857D01*
X148546190Y-102905238D01*
X148546190Y-102786191D01*
X148570000Y-102738572D01*
X148593810Y-102714762D01*
X148641429Y-102690953D01*
X148689048Y-102690953D01*
X148760476Y-102714762D01*
X149046190Y-103000476D01*
X149046190Y-102690953D01*
X146930477Y-105788571D02*
X146906667Y-105812381D01*
X146835239Y-105836190D01*
X146787620Y-105836190D01*
X146716191Y-105812381D01*
X146668572Y-105764762D01*
X146644763Y-105717143D01*
X146620953Y-105621905D01*
X146620953Y-105550476D01*
X146644763Y-105455238D01*
X146668572Y-105407619D01*
X146716191Y-105360000D01*
X146787620Y-105336190D01*
X146835239Y-105336190D01*
X146906667Y-105360000D01*
X146930477Y-105383810D01*
X147406667Y-105836190D02*
X147120953Y-105836190D01*
X147263810Y-105836190D02*
X147263810Y-105336190D01*
X147216191Y-105407619D01*
X147168572Y-105455238D01*
X147120953Y-105479048D01*
X147716191Y-105336190D02*
X147763810Y-105336190D01*
X147811429Y-105360000D01*
X147835238Y-105383810D01*
X147859048Y-105431429D01*
X147882857Y-105526667D01*
X147882857Y-105645714D01*
X147859048Y-105740952D01*
X147835238Y-105788571D01*
X147811429Y-105812381D01*
X147763810Y-105836190D01*
X147716191Y-105836190D01*
X147668572Y-105812381D01*
X147644762Y-105788571D01*
X147620953Y-105740952D01*
X147597143Y-105645714D01*
X147597143Y-105526667D01*
X147620953Y-105431429D01*
X147644762Y-105383810D01*
X147668572Y-105360000D01*
X147716191Y-105336190D01*
X148049524Y-105336190D02*
X148359047Y-105336190D01*
X148192381Y-105526667D01*
X148263809Y-105526667D01*
X148311428Y-105550476D01*
X148335238Y-105574286D01*
X148359047Y-105621905D01*
X148359047Y-105740952D01*
X148335238Y-105788571D01*
X148311428Y-105812381D01*
X148263809Y-105836190D01*
X148120952Y-105836190D01*
X148073333Y-105812381D01*
X148049524Y-105788571D01*
X149568571Y-109829523D02*
X149592381Y-109853333D01*
X149616190Y-109924761D01*
X149616190Y-109972380D01*
X149592381Y-110043809D01*
X149544762Y-110091428D01*
X149497143Y-110115237D01*
X149401905Y-110139047D01*
X149330476Y-110139047D01*
X149235238Y-110115237D01*
X149187619Y-110091428D01*
X149140000Y-110043809D01*
X149116190Y-109972380D01*
X149116190Y-109924761D01*
X149140000Y-109853333D01*
X149163810Y-109829523D01*
X149616190Y-109353333D02*
X149616190Y-109639047D01*
X149616190Y-109496190D02*
X149116190Y-109496190D01*
X149187619Y-109543809D01*
X149235238Y-109591428D01*
X149259048Y-109639047D01*
X149116190Y-109043809D02*
X149116190Y-108996190D01*
X149140000Y-108948571D01*
X149163810Y-108924762D01*
X149211429Y-108900952D01*
X149306667Y-108877143D01*
X149425714Y-108877143D01*
X149520952Y-108900952D01*
X149568571Y-108924762D01*
X149592381Y-108948571D01*
X149616190Y-108996190D01*
X149616190Y-109043809D01*
X149592381Y-109091428D01*
X149568571Y-109115238D01*
X149520952Y-109139047D01*
X149425714Y-109162857D01*
X149306667Y-109162857D01*
X149211429Y-109139047D01*
X149163810Y-109115238D01*
X149140000Y-109091428D01*
X149116190Y-109043809D01*
X149282857Y-108448572D02*
X149616190Y-108448572D01*
X149092381Y-108567619D02*
X149449524Y-108686667D01*
X149449524Y-108377143D01*
X135226190Y-100395237D02*
X134726190Y-100395237D01*
X134726190Y-100204761D01*
X134750000Y-100157142D01*
X134773810Y-100133333D01*
X134821429Y-100109523D01*
X134892857Y-100109523D01*
X134940476Y-100133333D01*
X134964286Y-100157142D01*
X134988095Y-100204761D01*
X134988095Y-100395237D01*
X135226190Y-99633333D02*
X135226190Y-99919047D01*
X135226190Y-99776190D02*
X134726190Y-99776190D01*
X134797619Y-99823809D01*
X134845238Y-99871428D01*
X134869048Y-99919047D01*
X134726190Y-99323809D02*
X134726190Y-99276190D01*
X134750000Y-99228571D01*
X134773810Y-99204762D01*
X134821429Y-99180952D01*
X134916667Y-99157143D01*
X135035714Y-99157143D01*
X135130952Y-99180952D01*
X135178571Y-99204762D01*
X135202381Y-99228571D01*
X135226190Y-99276190D01*
X135226190Y-99323809D01*
X135202381Y-99371428D01*
X135178571Y-99395238D01*
X135130952Y-99419047D01*
X135035714Y-99442857D01*
X134916667Y-99442857D01*
X134821429Y-99419047D01*
X134773810Y-99395238D01*
X134750000Y-99371428D01*
X134726190Y-99323809D01*
X135226190Y-98680953D02*
X135226190Y-98966667D01*
X135226190Y-98823810D02*
X134726190Y-98823810D01*
X134797619Y-98871429D01*
X134845238Y-98919048D01*
X134869048Y-98966667D01*
X130624763Y-110096190D02*
X130624763Y-109596190D01*
X130815239Y-109596190D01*
X130862858Y-109620000D01*
X130886667Y-109643810D01*
X130910477Y-109691429D01*
X130910477Y-109762857D01*
X130886667Y-109810476D01*
X130862858Y-109834286D01*
X130815239Y-109858095D01*
X130624763Y-109858095D01*
X131386667Y-110096190D02*
X131100953Y-110096190D01*
X131243810Y-110096190D02*
X131243810Y-109596190D01*
X131196191Y-109667619D01*
X131148572Y-109715238D01*
X131100953Y-109739048D01*
X131696191Y-109596190D02*
X131743810Y-109596190D01*
X131791429Y-109620000D01*
X131815238Y-109643810D01*
X131839048Y-109691429D01*
X131862857Y-109786667D01*
X131862857Y-109905714D01*
X131839048Y-110000952D01*
X131815238Y-110048571D01*
X131791429Y-110072381D01*
X131743810Y-110096190D01*
X131696191Y-110096190D01*
X131648572Y-110072381D01*
X131624762Y-110048571D01*
X131600953Y-110000952D01*
X131577143Y-109905714D01*
X131577143Y-109786667D01*
X131600953Y-109691429D01*
X131624762Y-109643810D01*
X131648572Y-109620000D01*
X131696191Y-109596190D01*
X132053333Y-109643810D02*
X132077143Y-109620000D01*
X132124762Y-109596190D01*
X132243809Y-109596190D01*
X132291428Y-109620000D01*
X132315238Y-109643810D01*
X132339047Y-109691429D01*
X132339047Y-109739048D01*
X132315238Y-109810476D01*
X132029524Y-110096190D01*
X132339047Y-110096190D01*
X139374763Y-115416190D02*
X139374763Y-114916190D01*
X139565239Y-114916190D01*
X139612858Y-114940000D01*
X139636667Y-114963810D01*
X139660477Y-115011429D01*
X139660477Y-115082857D01*
X139636667Y-115130476D01*
X139612858Y-115154286D01*
X139565239Y-115178095D01*
X139374763Y-115178095D01*
X140136667Y-115416190D02*
X139850953Y-115416190D01*
X139993810Y-115416190D02*
X139993810Y-114916190D01*
X139946191Y-114987619D01*
X139898572Y-115035238D01*
X139850953Y-115059048D01*
X140446191Y-114916190D02*
X140493810Y-114916190D01*
X140541429Y-114940000D01*
X140565238Y-114963810D01*
X140589048Y-115011429D01*
X140612857Y-115106667D01*
X140612857Y-115225714D01*
X140589048Y-115320952D01*
X140565238Y-115368571D01*
X140541429Y-115392381D01*
X140493810Y-115416190D01*
X140446191Y-115416190D01*
X140398572Y-115392381D01*
X140374762Y-115368571D01*
X140350953Y-115320952D01*
X140327143Y-115225714D01*
X140327143Y-115106667D01*
X140350953Y-115011429D01*
X140374762Y-114963810D01*
X140398572Y-114940000D01*
X140446191Y-114916190D01*
X140779524Y-114916190D02*
X141089047Y-114916190D01*
X140922381Y-115106667D01*
X140993809Y-115106667D01*
X141041428Y-115130476D01*
X141065238Y-115154286D01*
X141089047Y-115201905D01*
X141089047Y-115320952D01*
X141065238Y-115368571D01*
X141041428Y-115392381D01*
X140993809Y-115416190D01*
X140850952Y-115416190D01*
X140803333Y-115392381D01*
X140779524Y-115368571D01*
X148976190Y-112215237D02*
X148476190Y-112215237D01*
X148476190Y-112024761D01*
X148500000Y-111977142D01*
X148523810Y-111953333D01*
X148571429Y-111929523D01*
X148642857Y-111929523D01*
X148690476Y-111953333D01*
X148714286Y-111977142D01*
X148738095Y-112024761D01*
X148738095Y-112215237D01*
X148976190Y-111453333D02*
X148976190Y-111739047D01*
X148976190Y-111596190D02*
X148476190Y-111596190D01*
X148547619Y-111643809D01*
X148595238Y-111691428D01*
X148619048Y-111739047D01*
X148476190Y-111143809D02*
X148476190Y-111096190D01*
X148500000Y-111048571D01*
X148523810Y-111024762D01*
X148571429Y-111000952D01*
X148666667Y-110977143D01*
X148785714Y-110977143D01*
X148880952Y-111000952D01*
X148928571Y-111024762D01*
X148952381Y-111048571D01*
X148976190Y-111096190D01*
X148976190Y-111143809D01*
X148952381Y-111191428D01*
X148928571Y-111215238D01*
X148880952Y-111239047D01*
X148785714Y-111262857D01*
X148666667Y-111262857D01*
X148571429Y-111239047D01*
X148523810Y-111215238D01*
X148500000Y-111191428D01*
X148476190Y-111143809D01*
X148642857Y-110548572D02*
X148976190Y-110548572D01*
X148452381Y-110667619D02*
X148809524Y-110786667D01*
X148809524Y-110477143D01*
X138742858Y-110446190D02*
X138742858Y-110850952D01*
X138766667Y-110898571D01*
X138790477Y-110922381D01*
X138838096Y-110946190D01*
X138933334Y-110946190D01*
X138980953Y-110922381D01*
X139004762Y-110898571D01*
X139028572Y-110850952D01*
X139028572Y-110446190D01*
X139528572Y-110946190D02*
X139242858Y-110946190D01*
X139385715Y-110946190D02*
X139385715Y-110446190D01*
X139338096Y-110517619D01*
X139290477Y-110565238D01*
X139242858Y-110589048D01*
X139838096Y-110446190D02*
X139885715Y-110446190D01*
X139933334Y-110470000D01*
X139957143Y-110493810D01*
X139980953Y-110541429D01*
X140004762Y-110636667D01*
X140004762Y-110755714D01*
X139980953Y-110850952D01*
X139957143Y-110898571D01*
X139933334Y-110922381D01*
X139885715Y-110946190D01*
X139838096Y-110946190D01*
X139790477Y-110922381D01*
X139766667Y-110898571D01*
X139742858Y-110850952D01*
X139719048Y-110755714D01*
X139719048Y-110636667D01*
X139742858Y-110541429D01*
X139766667Y-110493810D01*
X139790477Y-110470000D01*
X139838096Y-110446190D01*
X140480952Y-110946190D02*
X140195238Y-110946190D01*
X140338095Y-110946190D02*
X140338095Y-110446190D01*
X140290476Y-110517619D01*
X140242857Y-110565238D01*
X140195238Y-110589048D01*
M02*
