G04 #@! TF.FileFunction,Copper,L2,Bot,Signal*
%FSLAX46Y46*%
G04 Gerber Fmt 4.6, Leading zero omitted, Abs format (unit mm)*
G04 Created by KiCad (PCBNEW (2015-01-29 BZR 5396)-product) date 7/20/2015 11:16:08 PM*
%MOMM*%
G01*
G04 APERTURE LIST*
%ADD10C,0.100000*%
%ADD11R,2.032000X2.032000*%
%ADD12O,2.032000X2.032000*%
%ADD13R,2.032000X1.727200*%
%ADD14O,2.032000X1.727200*%
%ADD15C,0.685800*%
%ADD16C,0.889000*%
%ADD17C,0.609600*%
%ADD18C,0.152400*%
G04 APERTURE END LIST*
D10*
D11*
X137240000Y-99520000D03*
D12*
X139780000Y-99520000D03*
D13*
X131410000Y-107520000D03*
D14*
X131410000Y-104980000D03*
X131410000Y-102440000D03*
X131410000Y-99900000D03*
D11*
X136700000Y-112810000D03*
D12*
X139240000Y-112810000D03*
D11*
X143950000Y-111450000D03*
D12*
X146490000Y-111450000D03*
D15*
X138850000Y-108810000D03*
X136790000Y-108690000D03*
X149490000Y-107730000D03*
X147080000Y-104710000D03*
X149120000Y-101970000D03*
X147190000Y-99230000D03*
X136880000Y-109670000D03*
X138890000Y-109730000D03*
X136770000Y-108020000D03*
X138830000Y-107980000D03*
D16*
X133660000Y-103010000D03*
D17*
X149490000Y-107730000D02*
X149500000Y-107730000D01*
D18*
G36*
X149809800Y-115249800D02*
X147810736Y-115249800D01*
X147810736Y-111710617D01*
X147810736Y-111189383D01*
X147610467Y-110703798D01*
X147239617Y-110331815D01*
X146754645Y-110130066D01*
X146750617Y-110129268D01*
X146540800Y-110187372D01*
X146540800Y-111399200D01*
X147752695Y-111399200D01*
X147810736Y-111189383D01*
X147810736Y-111710617D01*
X147752695Y-111500800D01*
X146540800Y-111500800D01*
X146540800Y-112712628D01*
X146750617Y-112770732D01*
X146754645Y-112769934D01*
X147239617Y-112568185D01*
X147610467Y-112196202D01*
X147810736Y-111710617D01*
X147810736Y-115249800D01*
X146439200Y-115249800D01*
X146439200Y-112712628D01*
X146439200Y-111500800D01*
X146419200Y-111500800D01*
X146419200Y-111399200D01*
X146439200Y-111399200D01*
X146439200Y-110187372D01*
X146229383Y-110129268D01*
X146225355Y-110130066D01*
X145740383Y-110331815D01*
X145369533Y-110703798D01*
X145302669Y-110865920D01*
X145302669Y-110434000D01*
X145278241Y-110308096D01*
X145205550Y-110197438D01*
X145095813Y-110123364D01*
X144966000Y-110097331D01*
X142934000Y-110097331D01*
X142808096Y-110121759D01*
X142697438Y-110194450D01*
X142623364Y-110304187D01*
X142597331Y-110434000D01*
X142597331Y-112466000D01*
X142621759Y-112591904D01*
X142694450Y-112702562D01*
X142804187Y-112776636D01*
X142934000Y-112802669D01*
X144966000Y-112802669D01*
X145091904Y-112778241D01*
X145202562Y-112705550D01*
X145276636Y-112595813D01*
X145302669Y-112466000D01*
X145302669Y-112034079D01*
X145369533Y-112196202D01*
X145740383Y-112568185D01*
X146225355Y-112769934D01*
X146229383Y-112770732D01*
X146439200Y-112712628D01*
X146439200Y-115249800D01*
X141126200Y-115249800D01*
X141126200Y-99546374D01*
X141126200Y-99493626D01*
X141023727Y-98978458D01*
X140731907Y-98541719D01*
X140295168Y-98249899D01*
X139780000Y-98147426D01*
X139264832Y-98249899D01*
X138828093Y-98541719D01*
X138586200Y-98903737D01*
X138586200Y-98438319D01*
X138535930Y-98316957D01*
X138443043Y-98224070D01*
X138321681Y-98173800D01*
X138190319Y-98173800D01*
X137373350Y-98173800D01*
X137290800Y-98256350D01*
X137290800Y-99469200D01*
X137310800Y-99469200D01*
X137310800Y-99570800D01*
X137290800Y-99570800D01*
X137290800Y-100783650D01*
X137373350Y-100866200D01*
X138190319Y-100866200D01*
X138321681Y-100866200D01*
X138443043Y-100815930D01*
X138535930Y-100723043D01*
X138586200Y-100601681D01*
X138586200Y-100136262D01*
X138828093Y-100498281D01*
X139264832Y-100790101D01*
X139780000Y-100892574D01*
X140295168Y-100790101D01*
X140731907Y-100498281D01*
X141023727Y-100061542D01*
X141126200Y-99546374D01*
X141126200Y-115249800D01*
X140586200Y-115249800D01*
X140586200Y-112836374D01*
X140586200Y-112783626D01*
X140483727Y-112268458D01*
X140191907Y-111831719D01*
X139755168Y-111539899D01*
X139240000Y-111437426D01*
X138724832Y-111539899D01*
X138288093Y-111831719D01*
X138052669Y-112184055D01*
X138052669Y-111794000D01*
X138028241Y-111668096D01*
X137955550Y-111557438D01*
X137845813Y-111483364D01*
X137716000Y-111457331D01*
X137189200Y-111457331D01*
X137189200Y-100783650D01*
X137189200Y-99570800D01*
X137189200Y-99469200D01*
X137189200Y-98256350D01*
X137106650Y-98173800D01*
X136289681Y-98173800D01*
X136158319Y-98173800D01*
X136036957Y-98224070D01*
X135944070Y-98316957D01*
X135893800Y-98438319D01*
X135893800Y-99386650D01*
X135976350Y-99469200D01*
X137189200Y-99469200D01*
X137189200Y-99570800D01*
X135976350Y-99570800D01*
X135893800Y-99653350D01*
X135893800Y-100601681D01*
X135944070Y-100723043D01*
X136036957Y-100815930D01*
X136158319Y-100866200D01*
X136289681Y-100866200D01*
X137106650Y-100866200D01*
X137189200Y-100783650D01*
X137189200Y-111457331D01*
X135684000Y-111457331D01*
X135558096Y-111481759D01*
X135447438Y-111554450D01*
X135373364Y-111664187D01*
X135347331Y-111794000D01*
X135347331Y-113826000D01*
X135371759Y-113951904D01*
X135444450Y-114062562D01*
X135554187Y-114136636D01*
X135684000Y-114162669D01*
X137716000Y-114162669D01*
X137841904Y-114138241D01*
X137952562Y-114065550D01*
X138026636Y-113955813D01*
X138052669Y-113826000D01*
X138052669Y-113435944D01*
X138288093Y-113788281D01*
X138724832Y-114080101D01*
X139240000Y-114182574D01*
X139755168Y-114080101D01*
X140191907Y-113788281D01*
X140483727Y-113351542D01*
X140586200Y-112836374D01*
X140586200Y-115249800D01*
X132782574Y-115249800D01*
X132782574Y-104980000D01*
X132782574Y-102440000D01*
X132782574Y-99900000D01*
X132691701Y-99443153D01*
X132432918Y-99055856D01*
X132045621Y-98797073D01*
X131588774Y-98706200D01*
X131231226Y-98706200D01*
X130774379Y-98797073D01*
X130387082Y-99055856D01*
X130128299Y-99443153D01*
X130037426Y-99900000D01*
X130128299Y-100356847D01*
X130387082Y-100744144D01*
X130774379Y-101002927D01*
X131231226Y-101093800D01*
X131588774Y-101093800D01*
X132045621Y-101002927D01*
X132432918Y-100744144D01*
X132691701Y-100356847D01*
X132782574Y-99900000D01*
X132782574Y-102440000D01*
X132691701Y-101983153D01*
X132432918Y-101595856D01*
X132045621Y-101337073D01*
X131588774Y-101246200D01*
X131231226Y-101246200D01*
X130774379Y-101337073D01*
X130387082Y-101595856D01*
X130128299Y-101983153D01*
X130037426Y-102440000D01*
X130128299Y-102896847D01*
X130387082Y-103284144D01*
X130774379Y-103542927D01*
X131231226Y-103633800D01*
X131588774Y-103633800D01*
X132045621Y-103542927D01*
X132432918Y-103284144D01*
X132691701Y-102896847D01*
X132782574Y-102440000D01*
X132782574Y-104980000D01*
X132691701Y-104523153D01*
X132432918Y-104135856D01*
X132045621Y-103877073D01*
X131588774Y-103786200D01*
X131231226Y-103786200D01*
X130774379Y-103877073D01*
X130387082Y-104135856D01*
X130128299Y-104523153D01*
X130037426Y-104980000D01*
X130128299Y-105436847D01*
X130387082Y-105824144D01*
X130774379Y-106082927D01*
X131231226Y-106173800D01*
X131588774Y-106173800D01*
X132045621Y-106082927D01*
X132432918Y-105824144D01*
X132691701Y-105436847D01*
X132782574Y-104980000D01*
X132782574Y-115249800D01*
X132762669Y-115249800D01*
X132762669Y-108383600D01*
X132762669Y-106656400D01*
X132738241Y-106530496D01*
X132665550Y-106419838D01*
X132555813Y-106345764D01*
X132426000Y-106319731D01*
X130394000Y-106319731D01*
X130268096Y-106344159D01*
X130157438Y-106416850D01*
X130083364Y-106526587D01*
X130057331Y-106656400D01*
X130057331Y-108383600D01*
X130081759Y-108509504D01*
X130154450Y-108620162D01*
X130264187Y-108694236D01*
X130394000Y-108720269D01*
X132426000Y-108720269D01*
X132551904Y-108695841D01*
X132662562Y-108623150D01*
X132736636Y-108513413D01*
X132762669Y-108383600D01*
X132762669Y-115249800D01*
X129080200Y-115249800D01*
X129080200Y-97230200D01*
X149809800Y-97230200D01*
X149809800Y-115249800D01*
X149809800Y-115249800D01*
G37*
X149809800Y-115249800D02*
X147810736Y-115249800D01*
X147810736Y-111710617D01*
X147810736Y-111189383D01*
X147610467Y-110703798D01*
X147239617Y-110331815D01*
X146754645Y-110130066D01*
X146750617Y-110129268D01*
X146540800Y-110187372D01*
X146540800Y-111399200D01*
X147752695Y-111399200D01*
X147810736Y-111189383D01*
X147810736Y-111710617D01*
X147752695Y-111500800D01*
X146540800Y-111500800D01*
X146540800Y-112712628D01*
X146750617Y-112770732D01*
X146754645Y-112769934D01*
X147239617Y-112568185D01*
X147610467Y-112196202D01*
X147810736Y-111710617D01*
X147810736Y-115249800D01*
X146439200Y-115249800D01*
X146439200Y-112712628D01*
X146439200Y-111500800D01*
X146419200Y-111500800D01*
X146419200Y-111399200D01*
X146439200Y-111399200D01*
X146439200Y-110187372D01*
X146229383Y-110129268D01*
X146225355Y-110130066D01*
X145740383Y-110331815D01*
X145369533Y-110703798D01*
X145302669Y-110865920D01*
X145302669Y-110434000D01*
X145278241Y-110308096D01*
X145205550Y-110197438D01*
X145095813Y-110123364D01*
X144966000Y-110097331D01*
X142934000Y-110097331D01*
X142808096Y-110121759D01*
X142697438Y-110194450D01*
X142623364Y-110304187D01*
X142597331Y-110434000D01*
X142597331Y-112466000D01*
X142621759Y-112591904D01*
X142694450Y-112702562D01*
X142804187Y-112776636D01*
X142934000Y-112802669D01*
X144966000Y-112802669D01*
X145091904Y-112778241D01*
X145202562Y-112705550D01*
X145276636Y-112595813D01*
X145302669Y-112466000D01*
X145302669Y-112034079D01*
X145369533Y-112196202D01*
X145740383Y-112568185D01*
X146225355Y-112769934D01*
X146229383Y-112770732D01*
X146439200Y-112712628D01*
X146439200Y-115249800D01*
X141126200Y-115249800D01*
X141126200Y-99546374D01*
X141126200Y-99493626D01*
X141023727Y-98978458D01*
X140731907Y-98541719D01*
X140295168Y-98249899D01*
X139780000Y-98147426D01*
X139264832Y-98249899D01*
X138828093Y-98541719D01*
X138586200Y-98903737D01*
X138586200Y-98438319D01*
X138535930Y-98316957D01*
X138443043Y-98224070D01*
X138321681Y-98173800D01*
X138190319Y-98173800D01*
X137373350Y-98173800D01*
X137290800Y-98256350D01*
X137290800Y-99469200D01*
X137310800Y-99469200D01*
X137310800Y-99570800D01*
X137290800Y-99570800D01*
X137290800Y-100783650D01*
X137373350Y-100866200D01*
X138190319Y-100866200D01*
X138321681Y-100866200D01*
X138443043Y-100815930D01*
X138535930Y-100723043D01*
X138586200Y-100601681D01*
X138586200Y-100136262D01*
X138828093Y-100498281D01*
X139264832Y-100790101D01*
X139780000Y-100892574D01*
X140295168Y-100790101D01*
X140731907Y-100498281D01*
X141023727Y-100061542D01*
X141126200Y-99546374D01*
X141126200Y-115249800D01*
X140586200Y-115249800D01*
X140586200Y-112836374D01*
X140586200Y-112783626D01*
X140483727Y-112268458D01*
X140191907Y-111831719D01*
X139755168Y-111539899D01*
X139240000Y-111437426D01*
X138724832Y-111539899D01*
X138288093Y-111831719D01*
X138052669Y-112184055D01*
X138052669Y-111794000D01*
X138028241Y-111668096D01*
X137955550Y-111557438D01*
X137845813Y-111483364D01*
X137716000Y-111457331D01*
X137189200Y-111457331D01*
X137189200Y-100783650D01*
X137189200Y-99570800D01*
X137189200Y-99469200D01*
X137189200Y-98256350D01*
X137106650Y-98173800D01*
X136289681Y-98173800D01*
X136158319Y-98173800D01*
X136036957Y-98224070D01*
X135944070Y-98316957D01*
X135893800Y-98438319D01*
X135893800Y-99386650D01*
X135976350Y-99469200D01*
X137189200Y-99469200D01*
X137189200Y-99570800D01*
X135976350Y-99570800D01*
X135893800Y-99653350D01*
X135893800Y-100601681D01*
X135944070Y-100723043D01*
X136036957Y-100815930D01*
X136158319Y-100866200D01*
X136289681Y-100866200D01*
X137106650Y-100866200D01*
X137189200Y-100783650D01*
X137189200Y-111457331D01*
X135684000Y-111457331D01*
X135558096Y-111481759D01*
X135447438Y-111554450D01*
X135373364Y-111664187D01*
X135347331Y-111794000D01*
X135347331Y-113826000D01*
X135371759Y-113951904D01*
X135444450Y-114062562D01*
X135554187Y-114136636D01*
X135684000Y-114162669D01*
X137716000Y-114162669D01*
X137841904Y-114138241D01*
X137952562Y-114065550D01*
X138026636Y-113955813D01*
X138052669Y-113826000D01*
X138052669Y-113435944D01*
X138288093Y-113788281D01*
X138724832Y-114080101D01*
X139240000Y-114182574D01*
X139755168Y-114080101D01*
X140191907Y-113788281D01*
X140483727Y-113351542D01*
X140586200Y-112836374D01*
X140586200Y-115249800D01*
X132782574Y-115249800D01*
X132782574Y-104980000D01*
X132782574Y-102440000D01*
X132782574Y-99900000D01*
X132691701Y-99443153D01*
X132432918Y-99055856D01*
X132045621Y-98797073D01*
X131588774Y-98706200D01*
X131231226Y-98706200D01*
X130774379Y-98797073D01*
X130387082Y-99055856D01*
X130128299Y-99443153D01*
X130037426Y-99900000D01*
X130128299Y-100356847D01*
X130387082Y-100744144D01*
X130774379Y-101002927D01*
X131231226Y-101093800D01*
X131588774Y-101093800D01*
X132045621Y-101002927D01*
X132432918Y-100744144D01*
X132691701Y-100356847D01*
X132782574Y-99900000D01*
X132782574Y-102440000D01*
X132691701Y-101983153D01*
X132432918Y-101595856D01*
X132045621Y-101337073D01*
X131588774Y-101246200D01*
X131231226Y-101246200D01*
X130774379Y-101337073D01*
X130387082Y-101595856D01*
X130128299Y-101983153D01*
X130037426Y-102440000D01*
X130128299Y-102896847D01*
X130387082Y-103284144D01*
X130774379Y-103542927D01*
X131231226Y-103633800D01*
X131588774Y-103633800D01*
X132045621Y-103542927D01*
X132432918Y-103284144D01*
X132691701Y-102896847D01*
X132782574Y-102440000D01*
X132782574Y-104980000D01*
X132691701Y-104523153D01*
X132432918Y-104135856D01*
X132045621Y-103877073D01*
X131588774Y-103786200D01*
X131231226Y-103786200D01*
X130774379Y-103877073D01*
X130387082Y-104135856D01*
X130128299Y-104523153D01*
X130037426Y-104980000D01*
X130128299Y-105436847D01*
X130387082Y-105824144D01*
X130774379Y-106082927D01*
X131231226Y-106173800D01*
X131588774Y-106173800D01*
X132045621Y-106082927D01*
X132432918Y-105824144D01*
X132691701Y-105436847D01*
X132782574Y-104980000D01*
X132782574Y-115249800D01*
X132762669Y-115249800D01*
X132762669Y-108383600D01*
X132762669Y-106656400D01*
X132738241Y-106530496D01*
X132665550Y-106419838D01*
X132555813Y-106345764D01*
X132426000Y-106319731D01*
X130394000Y-106319731D01*
X130268096Y-106344159D01*
X130157438Y-106416850D01*
X130083364Y-106526587D01*
X130057331Y-106656400D01*
X130057331Y-108383600D01*
X130081759Y-108509504D01*
X130154450Y-108620162D01*
X130264187Y-108694236D01*
X130394000Y-108720269D01*
X132426000Y-108720269D01*
X132551904Y-108695841D01*
X132662562Y-108623150D01*
X132736636Y-108513413D01*
X132762669Y-108383600D01*
X132762669Y-115249800D01*
X129080200Y-115249800D01*
X129080200Y-97230200D01*
X149809800Y-97230200D01*
X149809800Y-115249800D01*
M02*
