M48
;DRILL file {kicad (2015-01-29 BZR 5396)-product} date 7/20/2015 11:16:18 PM
;FORMAT={2:4/ absolute / inch / suppress leading zeros}
FMAT,2
INCH,TZ
T1C0.013
T2C0.040
%
G90
G05
M72
T1
X52622Y-40555
X53846Y-42528
X53854Y-42791
X53890Y-43177
X54657Y-42512
X54665Y-42839
X54681Y-43201
X57906Y-41224
X57949Y-39067
X58709Y-40146
X58854Y-42413
T2
X51736Y-39331
X51736Y-40331
X51736Y-41331
X51736Y-42331
X53819Y-44413
X54031Y-39181
X54819Y-44413
X55031Y-39181
X56673Y-43878
X57673Y-43878
T0
M30
