G04 #@! TF.FileFunction,Copper,L2,Bot,Signal*
%FSLAX46Y46*%
G04 Gerber Fmt 4.6, Leading zero omitted, Abs format (unit mm)*
G04 Created by KiCad (PCBNEW (2015-01-29 BZR 5396)-product) date 7/23/2015 12:11:23 AM*
%MOMM*%
G01*
G04 APERTURE LIST*
%ADD10C,0.100000*%
%ADD11R,2.032000X2.032000*%
%ADD12O,2.032000X2.032000*%
%ADD13C,1.397000*%
%ADD14C,1.300000*%
%ADD15C,0.685800*%
%ADD16C,0.609600*%
%ADD17C,0.304800*%
%ADD18C,0.152400*%
G04 APERTURE END LIST*
D10*
D11*
X179770000Y-121590000D03*
D12*
X182310000Y-121590000D03*
D13*
X183450000Y-113050000D03*
D11*
X174010000Y-121590000D03*
D12*
X171470000Y-121590000D03*
D14*
X182200000Y-110240000D03*
X182200000Y-107700000D03*
X172200000Y-110240000D03*
X172200000Y-107700000D03*
D15*
X179590000Y-112170000D03*
X168970000Y-109580000D03*
X183170000Y-117180000D03*
D16*
X171470000Y-121590000D02*
X171470000Y-120470000D01*
X177830000Y-121590000D02*
X179770000Y-121590000D01*
X176020000Y-119780000D02*
X177830000Y-121590000D01*
X172160000Y-119780000D02*
X176020000Y-119780000D01*
X171470000Y-120470000D02*
X172160000Y-119780000D01*
D17*
X182200000Y-107700000D02*
X183920000Y-109420000D01*
X184710000Y-115640000D02*
X183170000Y-117180000D01*
X184710000Y-112350000D02*
X184710000Y-115640000D01*
X183920000Y-111560000D02*
X184710000Y-112350000D01*
X183920000Y-109420000D02*
X183920000Y-111560000D01*
X182200000Y-107700000D02*
X181870000Y-107700000D01*
D18*
G36*
X185059800Y-123119800D02*
X183630736Y-123119800D01*
X183630736Y-121850617D01*
X183630736Y-121329383D01*
X183430467Y-120843798D01*
X183059617Y-120471815D01*
X182574645Y-120270066D01*
X182570617Y-120269268D01*
X182360800Y-120327372D01*
X182360800Y-121539200D01*
X183572695Y-121539200D01*
X183630736Y-121329383D01*
X183630736Y-121850617D01*
X183572695Y-121640800D01*
X182360800Y-121640800D01*
X182360800Y-122852628D01*
X182570617Y-122910732D01*
X182574645Y-122909934D01*
X183059617Y-122708185D01*
X183430467Y-122336202D01*
X183630736Y-121850617D01*
X183630736Y-123119800D01*
X182259200Y-123119800D01*
X182259200Y-122852628D01*
X182259200Y-121640800D01*
X182239200Y-121640800D01*
X182239200Y-121539200D01*
X182259200Y-121539200D01*
X182259200Y-120327372D01*
X182049383Y-120269268D01*
X182045355Y-120270066D01*
X181560383Y-120471815D01*
X181189533Y-120843798D01*
X181122669Y-121005920D01*
X181122669Y-120574000D01*
X181098241Y-120448096D01*
X181025550Y-120337438D01*
X180915813Y-120263364D01*
X180786000Y-120237331D01*
X178754000Y-120237331D01*
X178628096Y-120261759D01*
X178517438Y-120334450D01*
X178443364Y-120444187D01*
X178417331Y-120574000D01*
X178417331Y-120955000D01*
X178093025Y-120955000D01*
X176469013Y-119330987D01*
X176263004Y-119193336D01*
X176020000Y-119145000D01*
X173180370Y-119145000D01*
X173180370Y-110045882D01*
X173180370Y-107505882D01*
X173031457Y-107145487D01*
X172755964Y-106869512D01*
X172395829Y-106719971D01*
X172005882Y-106719630D01*
X171645487Y-106868543D01*
X171369512Y-107144036D01*
X171219971Y-107504171D01*
X171219630Y-107894118D01*
X171368543Y-108254513D01*
X171644036Y-108530488D01*
X172004171Y-108680029D01*
X172394118Y-108680370D01*
X172754513Y-108531457D01*
X173030488Y-108255964D01*
X173180029Y-107895829D01*
X173180370Y-107505882D01*
X173180370Y-110045882D01*
X173031457Y-109685487D01*
X172755964Y-109409512D01*
X172395829Y-109259971D01*
X172005882Y-109259630D01*
X171645487Y-109408543D01*
X171369512Y-109684036D01*
X171219971Y-110044171D01*
X171219630Y-110434118D01*
X171368543Y-110794513D01*
X171644036Y-111070488D01*
X172004171Y-111220029D01*
X172394118Y-111220370D01*
X172754513Y-111071457D01*
X173030488Y-110795964D01*
X173180029Y-110435829D01*
X173180370Y-110045882D01*
X173180370Y-119145000D01*
X172160000Y-119145000D01*
X171916995Y-119193336D01*
X171710987Y-119330987D01*
X171330326Y-119711648D01*
X171330326Y-111425392D01*
X171219394Y-111156916D01*
X171014165Y-110951328D01*
X170745883Y-110839927D01*
X170455392Y-110839674D01*
X170186916Y-110950606D01*
X169981328Y-111155835D01*
X169869927Y-111424117D01*
X169869674Y-111714608D01*
X169980606Y-111983084D01*
X170185835Y-112188672D01*
X170454117Y-112300073D01*
X170744608Y-112300326D01*
X171013084Y-112189394D01*
X171218672Y-111984165D01*
X171330073Y-111715883D01*
X171330326Y-111425392D01*
X171330326Y-119711648D01*
X171020987Y-120020987D01*
X170883336Y-120226996D01*
X170851065Y-120389233D01*
X170518093Y-120611719D01*
X170226273Y-121048458D01*
X170123800Y-121563626D01*
X170123800Y-121616374D01*
X170226273Y-122131542D01*
X170518093Y-122568281D01*
X170954832Y-122860101D01*
X171470000Y-122962574D01*
X171985168Y-122860101D01*
X172421907Y-122568281D01*
X172657331Y-122215944D01*
X172657331Y-122606000D01*
X172681759Y-122731904D01*
X172754450Y-122842562D01*
X172864187Y-122916636D01*
X172994000Y-122942669D01*
X175026000Y-122942669D01*
X175151904Y-122918241D01*
X175262562Y-122845550D01*
X175336636Y-122735813D01*
X175362669Y-122606000D01*
X175362669Y-120574000D01*
X175338241Y-120448096D01*
X175316500Y-120415000D01*
X175756974Y-120415000D01*
X177380984Y-122039009D01*
X177380987Y-122039013D01*
X177380988Y-122039013D01*
X177586996Y-122176664D01*
X177830000Y-122225001D01*
X177830000Y-122225000D01*
X177830005Y-122225000D01*
X178417331Y-122225000D01*
X178417331Y-122606000D01*
X178441759Y-122731904D01*
X178514450Y-122842562D01*
X178624187Y-122916636D01*
X178754000Y-122942669D01*
X180786000Y-122942669D01*
X180911904Y-122918241D01*
X181022562Y-122845550D01*
X181096636Y-122735813D01*
X181122669Y-122606000D01*
X181122669Y-122174079D01*
X181189533Y-122336202D01*
X181560383Y-122708185D01*
X182045355Y-122909934D01*
X182049383Y-122910732D01*
X182259200Y-122852628D01*
X182259200Y-123119800D01*
X166650200Y-123119800D01*
X166650200Y-105960200D01*
X179484706Y-105960200D01*
X179386916Y-106000606D01*
X179181328Y-106205835D01*
X179069927Y-106474117D01*
X179069674Y-106764608D01*
X179180606Y-107033084D01*
X179385835Y-107238672D01*
X179654117Y-107350073D01*
X179944608Y-107350326D01*
X180213084Y-107239394D01*
X180418672Y-107034165D01*
X180530073Y-106765883D01*
X180530326Y-106475392D01*
X180419394Y-106206916D01*
X180214165Y-106001328D01*
X180115118Y-105960200D01*
X185059800Y-105960200D01*
X185059800Y-112021546D01*
X185051250Y-112008750D01*
X184402600Y-111360100D01*
X184402600Y-109420000D01*
X184365864Y-109235317D01*
X184261250Y-109078750D01*
X183150189Y-107967689D01*
X183180029Y-107895829D01*
X183180370Y-107505882D01*
X183031457Y-107145487D01*
X182755964Y-106869512D01*
X182395829Y-106719971D01*
X182005882Y-106719630D01*
X181645487Y-106868543D01*
X181369512Y-107144036D01*
X181219971Y-107504171D01*
X181219630Y-107894118D01*
X181368543Y-108254513D01*
X181644036Y-108530488D01*
X182004171Y-108680029D01*
X182394118Y-108680370D01*
X182467534Y-108650034D01*
X183437400Y-109619900D01*
X183437400Y-111560000D01*
X183474136Y-111744683D01*
X183578750Y-111901250D01*
X183729839Y-112052339D01*
X183655519Y-112021479D01*
X183246277Y-112021122D01*
X183182393Y-112047518D01*
X183182393Y-110423608D01*
X183177876Y-110033686D01*
X183037349Y-109694423D01*
X182883238Y-109628604D01*
X182811396Y-109700446D01*
X182811396Y-109556762D01*
X182745577Y-109402651D01*
X182383608Y-109257607D01*
X181993686Y-109262124D01*
X181654423Y-109402651D01*
X181588604Y-109556762D01*
X182200000Y-110168158D01*
X182811396Y-109556762D01*
X182811396Y-109700446D01*
X182271842Y-110240000D01*
X182883238Y-110851396D01*
X183037349Y-110785577D01*
X183182393Y-110423608D01*
X183182393Y-112047518D01*
X182868050Y-112177402D01*
X182811396Y-112233957D01*
X182811396Y-110923238D01*
X182200000Y-110311842D01*
X182128158Y-110383684D01*
X182128158Y-110240000D01*
X181516762Y-109628604D01*
X181362651Y-109694423D01*
X181217607Y-110056392D01*
X181222124Y-110446314D01*
X181362651Y-110785577D01*
X181516762Y-110851396D01*
X182128158Y-110240000D01*
X182128158Y-110383684D01*
X181588604Y-110923238D01*
X181654423Y-111077349D01*
X182016392Y-111222393D01*
X182406314Y-111217876D01*
X182745577Y-111077349D01*
X182811396Y-110923238D01*
X182811396Y-112233957D01*
X182578419Y-112466528D01*
X182421479Y-112844481D01*
X182421122Y-113253723D01*
X182577402Y-113631950D01*
X182866528Y-113921581D01*
X183244481Y-114078521D01*
X183653723Y-114078878D01*
X184031950Y-113922598D01*
X184227400Y-113727488D01*
X184227400Y-115440100D01*
X183160608Y-116506891D01*
X183036699Y-116506783D01*
X182789217Y-116609041D01*
X182599706Y-116798222D01*
X182497017Y-117045525D01*
X182496783Y-117313301D01*
X182599041Y-117560783D01*
X182788222Y-117750294D01*
X183035525Y-117852983D01*
X183303301Y-117853217D01*
X183550783Y-117750959D01*
X183740294Y-117561778D01*
X183842983Y-117314475D01*
X183843092Y-117189407D01*
X185051250Y-115981250D01*
X185059800Y-115968453D01*
X185059800Y-123119800D01*
X185059800Y-123119800D01*
G37*
X185059800Y-123119800D02*
X183630736Y-123119800D01*
X183630736Y-121850617D01*
X183630736Y-121329383D01*
X183430467Y-120843798D01*
X183059617Y-120471815D01*
X182574645Y-120270066D01*
X182570617Y-120269268D01*
X182360800Y-120327372D01*
X182360800Y-121539200D01*
X183572695Y-121539200D01*
X183630736Y-121329383D01*
X183630736Y-121850617D01*
X183572695Y-121640800D01*
X182360800Y-121640800D01*
X182360800Y-122852628D01*
X182570617Y-122910732D01*
X182574645Y-122909934D01*
X183059617Y-122708185D01*
X183430467Y-122336202D01*
X183630736Y-121850617D01*
X183630736Y-123119800D01*
X182259200Y-123119800D01*
X182259200Y-122852628D01*
X182259200Y-121640800D01*
X182239200Y-121640800D01*
X182239200Y-121539200D01*
X182259200Y-121539200D01*
X182259200Y-120327372D01*
X182049383Y-120269268D01*
X182045355Y-120270066D01*
X181560383Y-120471815D01*
X181189533Y-120843798D01*
X181122669Y-121005920D01*
X181122669Y-120574000D01*
X181098241Y-120448096D01*
X181025550Y-120337438D01*
X180915813Y-120263364D01*
X180786000Y-120237331D01*
X178754000Y-120237331D01*
X178628096Y-120261759D01*
X178517438Y-120334450D01*
X178443364Y-120444187D01*
X178417331Y-120574000D01*
X178417331Y-120955000D01*
X178093025Y-120955000D01*
X176469013Y-119330987D01*
X176263004Y-119193336D01*
X176020000Y-119145000D01*
X173180370Y-119145000D01*
X173180370Y-110045882D01*
X173180370Y-107505882D01*
X173031457Y-107145487D01*
X172755964Y-106869512D01*
X172395829Y-106719971D01*
X172005882Y-106719630D01*
X171645487Y-106868543D01*
X171369512Y-107144036D01*
X171219971Y-107504171D01*
X171219630Y-107894118D01*
X171368543Y-108254513D01*
X171644036Y-108530488D01*
X172004171Y-108680029D01*
X172394118Y-108680370D01*
X172754513Y-108531457D01*
X173030488Y-108255964D01*
X173180029Y-107895829D01*
X173180370Y-107505882D01*
X173180370Y-110045882D01*
X173031457Y-109685487D01*
X172755964Y-109409512D01*
X172395829Y-109259971D01*
X172005882Y-109259630D01*
X171645487Y-109408543D01*
X171369512Y-109684036D01*
X171219971Y-110044171D01*
X171219630Y-110434118D01*
X171368543Y-110794513D01*
X171644036Y-111070488D01*
X172004171Y-111220029D01*
X172394118Y-111220370D01*
X172754513Y-111071457D01*
X173030488Y-110795964D01*
X173180029Y-110435829D01*
X173180370Y-110045882D01*
X173180370Y-119145000D01*
X172160000Y-119145000D01*
X171916995Y-119193336D01*
X171710987Y-119330987D01*
X171330326Y-119711648D01*
X171330326Y-111425392D01*
X171219394Y-111156916D01*
X171014165Y-110951328D01*
X170745883Y-110839927D01*
X170455392Y-110839674D01*
X170186916Y-110950606D01*
X169981328Y-111155835D01*
X169869927Y-111424117D01*
X169869674Y-111714608D01*
X169980606Y-111983084D01*
X170185835Y-112188672D01*
X170454117Y-112300073D01*
X170744608Y-112300326D01*
X171013084Y-112189394D01*
X171218672Y-111984165D01*
X171330073Y-111715883D01*
X171330326Y-111425392D01*
X171330326Y-119711648D01*
X171020987Y-120020987D01*
X170883336Y-120226996D01*
X170851065Y-120389233D01*
X170518093Y-120611719D01*
X170226273Y-121048458D01*
X170123800Y-121563626D01*
X170123800Y-121616374D01*
X170226273Y-122131542D01*
X170518093Y-122568281D01*
X170954832Y-122860101D01*
X171470000Y-122962574D01*
X171985168Y-122860101D01*
X172421907Y-122568281D01*
X172657331Y-122215944D01*
X172657331Y-122606000D01*
X172681759Y-122731904D01*
X172754450Y-122842562D01*
X172864187Y-122916636D01*
X172994000Y-122942669D01*
X175026000Y-122942669D01*
X175151904Y-122918241D01*
X175262562Y-122845550D01*
X175336636Y-122735813D01*
X175362669Y-122606000D01*
X175362669Y-120574000D01*
X175338241Y-120448096D01*
X175316500Y-120415000D01*
X175756974Y-120415000D01*
X177380984Y-122039009D01*
X177380987Y-122039013D01*
X177380988Y-122039013D01*
X177586996Y-122176664D01*
X177830000Y-122225001D01*
X177830000Y-122225000D01*
X177830005Y-122225000D01*
X178417331Y-122225000D01*
X178417331Y-122606000D01*
X178441759Y-122731904D01*
X178514450Y-122842562D01*
X178624187Y-122916636D01*
X178754000Y-122942669D01*
X180786000Y-122942669D01*
X180911904Y-122918241D01*
X181022562Y-122845550D01*
X181096636Y-122735813D01*
X181122669Y-122606000D01*
X181122669Y-122174079D01*
X181189533Y-122336202D01*
X181560383Y-122708185D01*
X182045355Y-122909934D01*
X182049383Y-122910732D01*
X182259200Y-122852628D01*
X182259200Y-123119800D01*
X166650200Y-123119800D01*
X166650200Y-105960200D01*
X179484706Y-105960200D01*
X179386916Y-106000606D01*
X179181328Y-106205835D01*
X179069927Y-106474117D01*
X179069674Y-106764608D01*
X179180606Y-107033084D01*
X179385835Y-107238672D01*
X179654117Y-107350073D01*
X179944608Y-107350326D01*
X180213084Y-107239394D01*
X180418672Y-107034165D01*
X180530073Y-106765883D01*
X180530326Y-106475392D01*
X180419394Y-106206916D01*
X180214165Y-106001328D01*
X180115118Y-105960200D01*
X185059800Y-105960200D01*
X185059800Y-112021546D01*
X185051250Y-112008750D01*
X184402600Y-111360100D01*
X184402600Y-109420000D01*
X184365864Y-109235317D01*
X184261250Y-109078750D01*
X183150189Y-107967689D01*
X183180029Y-107895829D01*
X183180370Y-107505882D01*
X183031457Y-107145487D01*
X182755964Y-106869512D01*
X182395829Y-106719971D01*
X182005882Y-106719630D01*
X181645487Y-106868543D01*
X181369512Y-107144036D01*
X181219971Y-107504171D01*
X181219630Y-107894118D01*
X181368543Y-108254513D01*
X181644036Y-108530488D01*
X182004171Y-108680029D01*
X182394118Y-108680370D01*
X182467534Y-108650034D01*
X183437400Y-109619900D01*
X183437400Y-111560000D01*
X183474136Y-111744683D01*
X183578750Y-111901250D01*
X183729839Y-112052339D01*
X183655519Y-112021479D01*
X183246277Y-112021122D01*
X183182393Y-112047518D01*
X183182393Y-110423608D01*
X183177876Y-110033686D01*
X183037349Y-109694423D01*
X182883238Y-109628604D01*
X182811396Y-109700446D01*
X182811396Y-109556762D01*
X182745577Y-109402651D01*
X182383608Y-109257607D01*
X181993686Y-109262124D01*
X181654423Y-109402651D01*
X181588604Y-109556762D01*
X182200000Y-110168158D01*
X182811396Y-109556762D01*
X182811396Y-109700446D01*
X182271842Y-110240000D01*
X182883238Y-110851396D01*
X183037349Y-110785577D01*
X183182393Y-110423608D01*
X183182393Y-112047518D01*
X182868050Y-112177402D01*
X182811396Y-112233957D01*
X182811396Y-110923238D01*
X182200000Y-110311842D01*
X182128158Y-110383684D01*
X182128158Y-110240000D01*
X181516762Y-109628604D01*
X181362651Y-109694423D01*
X181217607Y-110056392D01*
X181222124Y-110446314D01*
X181362651Y-110785577D01*
X181516762Y-110851396D01*
X182128158Y-110240000D01*
X182128158Y-110383684D01*
X181588604Y-110923238D01*
X181654423Y-111077349D01*
X182016392Y-111222393D01*
X182406314Y-111217876D01*
X182745577Y-111077349D01*
X182811396Y-110923238D01*
X182811396Y-112233957D01*
X182578419Y-112466528D01*
X182421479Y-112844481D01*
X182421122Y-113253723D01*
X182577402Y-113631950D01*
X182866528Y-113921581D01*
X183244481Y-114078521D01*
X183653723Y-114078878D01*
X184031950Y-113922598D01*
X184227400Y-113727488D01*
X184227400Y-115440100D01*
X183160608Y-116506891D01*
X183036699Y-116506783D01*
X182789217Y-116609041D01*
X182599706Y-116798222D01*
X182497017Y-117045525D01*
X182496783Y-117313301D01*
X182599041Y-117560783D01*
X182788222Y-117750294D01*
X183035525Y-117852983D01*
X183303301Y-117853217D01*
X183550783Y-117750959D01*
X183740294Y-117561778D01*
X183842983Y-117314475D01*
X183843092Y-117189407D01*
X185051250Y-115981250D01*
X185059800Y-115968453D01*
X185059800Y-123119800D01*
M02*
