<?xml version="1.0" encoding="UTF-8"?>
<svg xmlns="http://www.w3.org/2000/svg" xmlns:xlink="http://www.w3.org/1999/xlink" width="43pt" height="34pt" viewBox="0 0 43 34" version="1.1">
<g id="surface4082">
<path style=" stroke:none;fill-rule:evenodd;fill:rgb(100%,100%,100%);fill-opacity:1;" d="M 22.925781 5.015625 L 27.179688 5.015625 L 27.179688 1.472656 L 22.925781 1.472656 Z M 22.925781 5.015625 "/>
<path style=" stroke:none;fill-rule:evenodd;fill:rgb(100%,100%,100%);fill-opacity:1;" d="M 30.011719 5.015625 L 34.265625 5.015625 L 34.265625 1.472656 L 30.011719 1.472656 Z M 30.011719 5.015625 "/>
<path style=" stroke:none;fill-rule:evenodd;fill:rgb(100%,100%,100%);fill-opacity:1;" d="M 23.011719 14.609375 L 28.679688 14.609375 L 28.679688 7.523438 L 23.011719 7.523438 Z M 23.011719 14.609375 "/>
<path style=" stroke:none;fill-rule:evenodd;fill:rgb(100%,100%,100%);fill-opacity:1;" d="M 34.351563 14.609375 L 40.019531 14.609375 L 40.019531 7.523438 L 34.351563 7.523438 Z M 34.351563 14.609375 "/>
<path style=" stroke:none;fill-rule:evenodd;fill:rgb(100%,100%,100%);fill-opacity:1;" d="M 23.125 20.691406 L 27.378906 20.691406 L 27.378906 17.148438 L 23.125 17.148438 Z M 23.125 20.691406 "/>
<path style=" stroke:none;fill-rule:evenodd;fill:rgb(100%,100%,100%);fill-opacity:1;" d="M 30.210938 20.691406 L 34.464844 20.691406 L 34.464844 17.148438 L 30.210938 17.148438 Z M 30.210938 20.691406 "/>
<path style=" stroke:none;fill-rule:evenodd;fill:rgb(100%,100%,100%);fill-opacity:1;" d="M 24.429688 30.878906 L 30.097656 30.878906 L 30.097656 23.792969 L 24.429688 23.792969 Z M 24.429688 30.878906 "/>
<path style=" stroke:none;fill-rule:evenodd;fill:rgb(100%,100%,100%);fill-opacity:1;" d="M 35.769531 30.878906 L 41.4375 30.878906 L 41.4375 23.792969 L 35.769531 23.792969 Z M 35.769531 30.878906 "/>
<path style=" stroke:none;fill-rule:evenodd;fill:rgb(100%,100%,100%);fill-opacity:1;" d="M 1.972656 15.890625 L 5.574219 15.890625 L 5.574219 14.738281 L 1.972656 14.738281 Z M 1.972656 15.890625 "/>
<path style=" stroke:none;fill-rule:evenodd;fill:rgb(100%,100%,100%);fill-opacity:1;" d="M 1.972656 17.691406 L 5.574219 17.691406 L 5.574219 16.539063 L 1.972656 16.539063 Z M 1.972656 17.691406 "/>
<path style=" stroke:none;fill-rule:evenodd;fill:rgb(100%,100%,100%);fill-opacity:1;" d="M 1.972656 19.5625 L 5.574219 19.5625 L 5.574219 18.410156 L 1.972656 18.410156 Z M 1.972656 19.5625 "/>
<path style=" stroke:none;fill-rule:evenodd;fill:rgb(100%,100%,100%);fill-opacity:1;" d="M 1.972656 21.433594 L 5.574219 21.433594 L 5.574219 20.28125 L 1.972656 20.28125 Z M 1.972656 21.433594 "/>
<path style=" stroke:none;fill-rule:evenodd;fill:rgb(100%,100%,100%);fill-opacity:1;" d="M 1.972656 23.234375 L 5.574219 23.234375 L 5.574219 22.082031 L 1.972656 22.082031 Z M 1.972656 23.234375 "/>
<path style=" stroke:none;fill-rule:evenodd;fill:rgb(100%,100%,100%);fill-opacity:1;" d="M 1.972656 25.105469 L 5.574219 25.105469 L 5.574219 23.953125 L 1.972656 23.953125 Z M 1.972656 25.105469 "/>
<path style=" stroke:none;fill-rule:evenodd;fill:rgb(100%,100%,100%);fill-opacity:1;" d="M 1.972656 26.980469 L 5.574219 26.980469 L 5.574219 25.828125 L 1.972656 25.828125 Z M 1.972656 26.980469 "/>
<path style=" stroke:none;fill-rule:evenodd;fill:rgb(100%,100%,100%);fill-opacity:1;" d="M 1.972656 28.777344 L 5.574219 28.777344 L 5.574219 27.625 L 1.972656 27.625 Z M 1.972656 28.777344 "/>
<path style=" stroke:none;fill-rule:evenodd;fill:rgb(100%,100%,100%);fill-opacity:1;" d="M 1.972656 30.652344 L 5.574219 30.652344 L 5.574219 29.5 L 1.972656 29.5 Z M 1.972656 30.652344 "/>
<path style=" stroke:none;fill-rule:evenodd;fill:rgb(100%,100%,100%);fill-opacity:1;" d="M 1.972656 32.449219 L 5.574219 32.449219 L 5.574219 31.296875 L 1.972656 31.296875 Z M 1.972656 32.449219 "/>
<path style=" stroke:none;fill-rule:evenodd;fill:rgb(100%,100%,100%);fill-opacity:1;" d="M 17.09375 32.449219 L 20.695313 32.449219 L 20.695313 31.296875 L 17.09375 31.296875 Z M 17.09375 32.449219 "/>
<path style=" stroke:none;fill-rule:evenodd;fill:rgb(100%,100%,100%);fill-opacity:1;" d="M 17.09375 30.652344 L 20.695313 30.652344 L 20.695313 29.5 L 17.09375 29.5 Z M 17.09375 30.652344 "/>
<path style=" stroke:none;fill-rule:evenodd;fill:rgb(100%,100%,100%);fill-opacity:1;" d="M 17.09375 28.777344 L 20.695313 28.777344 L 20.695313 27.625 L 17.09375 27.625 Z M 17.09375 28.777344 "/>
<path style=" stroke:none;fill-rule:evenodd;fill:rgb(100%,100%,100%);fill-opacity:1;" d="M 17.09375 26.980469 L 20.695313 26.980469 L 20.695313 25.828125 L 17.09375 25.828125 Z M 17.09375 26.980469 "/>
<path style=" stroke:none;fill-rule:evenodd;fill:rgb(100%,100%,100%);fill-opacity:1;" d="M 17.09375 25.105469 L 20.695313 25.105469 L 20.695313 23.953125 L 17.09375 23.953125 Z M 17.09375 25.105469 "/>
<path style=" stroke:none;fill-rule:evenodd;fill:rgb(100%,100%,100%);fill-opacity:1;" d="M 17.09375 23.234375 L 20.695313 23.234375 L 20.695313 22.082031 L 17.09375 22.082031 Z M 17.09375 23.234375 "/>
<path style=" stroke:none;fill-rule:evenodd;fill:rgb(100%,100%,100%);fill-opacity:1;" d="M 17.09375 21.433594 L 20.695313 21.433594 L 20.695313 20.28125 L 17.09375 20.28125 Z M 17.09375 21.433594 "/>
<path style=" stroke:none;fill-rule:evenodd;fill:rgb(100%,100%,100%);fill-opacity:1;" d="M 17.09375 19.5625 L 20.695313 19.5625 L 20.695313 18.410156 L 17.09375 18.410156 Z M 17.09375 19.5625 "/>
<path style=" stroke:none;fill-rule:evenodd;fill:rgb(100%,100%,100%);fill-opacity:1;" d="M 17.09375 17.691406 L 20.695313 17.691406 L 20.695313 16.539063 L 17.09375 16.539063 Z M 17.09375 17.691406 "/>
<path style=" stroke:none;fill-rule:evenodd;fill:rgb(100%,100%,100%);fill-opacity:1;" d="M 17.09375 15.890625 L 20.695313 15.890625 L 20.695313 14.738281 L 17.09375 14.738281 Z M 17.09375 15.890625 "/>
</g>
</svg>
